<?xml version="1.0" encoding="utf-8" ?>
<svg xmlns="http://www.w3.org/2000/svg" xmlns:xlink="http://www.w3.org/1999/xlink" width="299" height="299">
	<path fill="white" transform="scale(0.291992 0.291992)" d="M0 898.999L5.91113 899.259C2.27695 916.133 3.28526 932.952 3.45193 950.084C1.68129 949.768 1.16376 948.619 0 947.292L0 898.999Z"/>
	<path fill="white" transform="scale(0.291992 0.291992)" d="M102.857 897.698L37.8648 897.822L37.1446 897.881L86.7318 835.363C87.3174 834.751 88.4592 833.323 89.1719 832.946C90.717 832.13 95.3328 832.534 97.1788 832.527C104.952 832.497 112.726 832.522 120.5 832.498C154.754 832.394 188.998 832.145 223.252 832.441C245.764 832.635 268.252 833.636 290.769 833.053C290.534 835.585 290.282 838.006 289.665 840.486C285.983 840.607 282.306 840.692 278.624 840.723C277.72 840.731 275.814 840.47 275.08 840.75C274.546 840.954 274.151 841.417 273.686 841.75C272.892 843.721 273.182 844.902 273.382 846.96L273.395 847.334C272.28 848.572 272.324 848.577 272.255 850.25L272.755 851L272.979 852.441L273.37 853.085C273.972 854.313 274.29 855.155 274.561 856.497L275.072 858.497L275.907 858.775L275.923 858.989C274.481 860.024 272.684 859.589 271.001 859.655C272.56 860.432 274.084 861.122 275.422 862.25C275.662 863.502 275.882 864.478 275.571 865.75L275.933 866.034C276.961 866.859 277.388 867.295 277.955 868.5C279.195 871.137 286.015 873.308 288.668 875.29C293.932 879.224 296.676 885.617 301.013 890.407C302.08 892 303.132 892.553 304.821 893.413C305.894 893.426 306.318 893.187 307.274 892.745C311.566 890.76 319.722 892.568 324.268 893.667C326.613 894.233 329.072 894.352 331.478 894.402C332.236 894.418 331.954 894.414 332.838 894.583C338.561 895.682 344.896 894.49 350.723 895.752C351.466 895.912 352.18 895.96 352.934 895.98C353.633 895.999 354.138 896.196 354.784 896.438C353.145 897.091 351.613 896.355 350.25 897.5L349.594 897.362C346.879 896.919 342.973 897.605 340.041 897.536C339.087 897.514 338.839 897.168 338 897C335.436 896.488 331.442 896.887 328.75 896.755L326.375 896.954C325.562 897.034 324.811 896.92 324 896.878C320.678 896.702 317.345 897.079 314 896.878L312.75 897L310.102 897.125C313.929 897.401 317.788 897.332 321.625 897.381C323.845 897.41 326.152 897.217 328.285 897.9L102.857 897.698Z"/>
	<path fill="white" transform="scale(0.291992 0.291992)" d="M271.001 859.655L270.954 859.664C269.707 858.343 265.776 856.352 265.4 855C266.228 854.479 266.008 854.456 266.772 854.391C267.653 854.317 268.336 854.356 269.199 854.084C270.572 853.651 271.961 853.38 273.37 853.085C273.972 854.313 274.29 855.155 274.561 856.497L275.072 858.497L275.907 858.775L275.923 858.989C274.481 860.024 272.684 859.589 271.001 859.655Z"/>
	<defs>
		<linearGradient id="gradient_0" gradientUnits="userSpaceOnUse" x1="548.87402" y1="824.19397" x2="477.25201" y2="1093.98">
			<stop offset="0" stop-color="#612400"/>
			<stop offset="1" stop-color="#A29066"/>
		</linearGradient>
	</defs>
	<defs>
		<linearGradient id="gradient_1" gradientUnits="userSpaceOnUse" x1="901.33301" y1="1060.62" x2="674.77899" y2="815.09698">
			<stop offset="0" stop-color="#7B591A"/>
			<stop offset="1" stop-color="#E1A366"/>
		</linearGradient>
	</defs>
	<defs>
		<linearGradient id="gradient_2" gradientUnits="userSpaceOnUse" x1="679.50598" y1="1008.11" x2="583.453" y2="743.90503">
			<stop offset="0" stop-color="#494C4D"/>
			<stop offset="1" stop-color="#616159"/>
		</linearGradient>
	</defs>
	<path fill="white" transform="scale(0.291992 0.291992)" d="M730.987 832.554C778.346 832.483 825.698 832.306 873.059 832.43C886.573 832.465 900.086 832.446 913.6 832.429C920.453 832.421 927.69 831.962 934.5 832.55C935.968 832.677 937.226 833.502 938.245 834.531L989.878 897.651L730.136 898L729.558 897.477C707.73 897.447 685.904 897.899 664.076 897.984C656.384 898.015 648.692 898.023 641 898.082C636.931 898.113 632.462 897.862 628.441 898.426C626.827 898.028 624.346 898.305 622.631 898.287C618.399 898.243 614.168 898.257 609.936 898.267C593.975 898.305 578.016 898.308 562.055 898.269C484.137 898.08 406.199 898.489 328.285 897.9C326.152 897.217 323.845 897.41 321.625 897.381C317.788 897.332 313.929 897.401 310.102 897.125L312.75 897L314 896.878C317.345 897.079 320.678 896.702 324 896.878C324.811 896.92 325.562 897.034 326.375 896.954L328.75 896.755C331.442 896.887 335.436 896.488 338 897C338.839 897.168 339.087 897.514 340.041 897.536C342.973 897.605 346.879 896.919 349.594 897.362L350.25 897.5C351.613 896.355 353.145 897.091 354.784 896.438C354.138 896.196 353.633 895.999 352.934 895.98C352.18 895.96 351.466 895.912 350.723 895.752C344.896 894.49 338.561 895.682 332.838 894.583C331.954 894.414 332.236 894.418 331.478 894.402C329.072 894.352 326.613 894.233 324.268 893.667C319.722 892.568 311.566 890.76 307.274 892.745C306.318 893.187 305.894 893.426 304.821 893.413C303.132 892.553 302.08 892 301.013 890.407C296.676 885.617 293.932 879.224 288.668 875.29C286.015 873.308 279.195 871.137 277.955 868.5C277.388 867.295 276.961 866.859 275.933 866.034L275.571 865.75C275.882 864.478 275.662 863.502 275.422 862.25C274.084 861.122 272.56 860.432 271.001 859.655C272.684 859.589 274.481 860.024 275.923 858.989L275.907 858.775L275.072 858.497L274.561 856.497C274.29 855.155 273.972 854.313 273.37 853.085L272.979 852.441L272.755 851L272.255 850.25C272.324 848.577 272.28 848.572 273.395 847.334C274.409 850.301 274.621 854.051 276.223 856.792C276.899 856.214 277.67 855.435 278.548 855.209C281.158 854.536 285.156 854.86 287.403 853.493C287.179 852.136 286.561 852.066 285.5 851.297L285.417 850.75C324.41 850.206 363.341 848.445 402.361 848.365C419.492 848.329 436.62 848.74 453.75 848.807C485.328 848.93 516.91 848.839 548.489 848.974C558.929 849.019 569.368 849.074 579.808 849.115C582.905 849.127 588.029 849.819 590.939 848.946C593.624 848.14 597.268 848.561 600.088 848.549C606.976 848.521 613.864 848.572 620.753 848.635C646.762 848.871 672.761 849.092 698.772 849.106C711.495 849.113 724.759 850.048 737.387 848.589L731.199 833.2L730.987 832.554Z"/>
	<path fill="white" transform="scale(0.291992 0.291992)" d="M750.478 860.97L750.344 860.549C749.838 859.04 749.227 858.089 748.184 856.9L740.75 856.55L740.75 856L747.75 856L747.75 855.745L737.434 855.411C739.934 854.771 743.352 854.852 745.958 854.783C747.273 854.748 748.57 855.012 749.75 854.332L751.497 854.552C753.188 856.896 753.972 858.663 754.445 861.516C753.177 860.854 751.886 861.006 750.478 860.97Z"/>
	<path fill="white" transform="scale(0.291992 0.291992)" d="M275.923 858.989L750.478 860.97C751.886 861.006 753.177 860.854 754.445 861.516L754.374 862.865C753.189 863.655 752.167 864.156 750.834 864.659C750.402 867.676 750.31 872.688 747.539 874.601L744.75 876.003C744.173 876.265 742.907 876.654 742.447 877.045C741.671 877.704 740.825 879.329 740.219 880.191C738.488 882.651 736.843 885.16 735.213 887.687L733.687 890.669L731.441 895.12C730.937 896.234 730.446 896.671 729.558 897.477C707.73 897.447 685.904 897.899 664.076 897.984C656.384 898.015 648.692 898.023 641 898.082C636.931 898.113 632.462 897.862 628.441 898.426C626.827 898.028 624.346 898.305 622.631 898.287C618.399 898.243 614.168 898.257 609.936 898.267C593.975 898.305 578.016 898.308 562.055 898.269C484.137 898.08 406.199 898.489 328.285 897.9C326.152 897.217 323.845 897.41 321.625 897.381C317.788 897.332 313.929 897.401 310.102 897.125L312.75 897L314 896.878C317.345 897.079 320.678 896.702 324 896.878C324.811 896.92 325.562 897.034 326.375 896.954L328.75 896.755C331.442 896.887 335.436 896.488 338 897C338.839 897.168 339.087 897.514 340.041 897.536C342.973 897.605 346.879 896.919 349.594 897.362L350.25 897.5C351.613 896.355 353.145 897.091 354.784 896.438C354.138 896.196 353.633 895.999 352.934 895.98C352.18 895.96 351.466 895.912 350.723 895.752C344.896 894.49 338.561 895.682 332.838 894.583C331.954 894.414 332.236 894.418 331.478 894.402C329.072 894.352 326.613 894.233 324.268 893.667C319.722 892.568 311.566 890.76 307.274 892.745C306.318 893.187 305.894 893.426 304.821 893.413C303.132 892.553 302.08 892 301.013 890.407C296.676 885.617 293.932 879.224 288.668 875.29C286.015 873.308 279.195 871.137 277.955 868.5C277.388 867.295 276.961 866.859 275.933 866.034L275.571 865.75C275.882 864.478 275.662 863.502 275.422 862.25C274.084 861.122 272.56 860.432 271.001 859.655C272.684 859.589 274.481 860.024 275.923 858.989Z"/>
	<path fill="white" transform="scale(0.291992 0.291992)" d="M290.769 833.053C297.149 831.951 303.817 832.135 310.279 832.093C320.45 832.026 330.619 832.106 340.79 832.138C372.018 832.238 403.292 832.406 434.518 832.177C436.041 817.85 435.058 802.542 435.059 788.127C435.062 764.46 435.381 740.788 435.06 717.124C392.851 716.571 350.573 716.929 308.358 716.997C249.471 717.093 190.528 717.029 131.645 716.665C115.472 716.565 99.2975 716.596 83.1245 716.554C77.2072 716.539 71.2898 716.524 65.3725 716.494C60.7162 716.47 55.6428 716.588 51.1455 715.281L50.25 715.014C41.4815 712.483 33.7083 707.686 27.346 701.148C19.7781 693.372 13.5913 683.347 11.9194 672.486C10.6134 664.002 11.1391 654.861 11.1983 646.285C11.2853 633.659 11.4047 621.033 11.4352 608.407C11.5384 565.653 11.1398 522.897 11.4403 480.144C12.3075 356.765 11.0515 233.352 11.8005 109.976C11.8226 106.343 11.7243 102.501 12.3395 98.9188C14.2997 87.5036 21.335 76.314 29.5066 68.302C38.1858 59.7923 48.1754 54.2828 60.3471 52.9195C70.6983 51.7602 81.7221 52.4005 92.147 52.3518C112.409 52.257 132.671 52.221 152.934 52.1499C220.838 51.9117 288.748 51.9121 356.652 52.0956C391.853 52.1907 427.051 51.8496 462.25 51.8862C532.568 51.9592 602.883 52.3282 673.204 52.1954C758.413 52.0345 843.647 51.5963 928.854 52.1275C937.011 52.0598 945.168 51.9988 953.325 51.9775C958.176 51.9648 963.273 51.6625 968.068 52.3418C979.566 53.971 991.613 59.5542 999.924 67.7065C1008.39 76.0077 1014.93 87.1265 1016.66 99.0119C1017.32 103.612 1017.13 108.503 1017.16 113.143C1017.48 182.262 1017.12 251.382 1017.09 320.5C1017.05 380.645 1017.31 440.795 1017.32 500.942C1017.33 538.807 1017.11 576.671 1017.11 614.535C1017.12 626.265 1017.13 637.995 1017.12 649.726C1017.11 656.409 1017.57 663.604 1016.64 670.21C1015.08 681.293 1009.09 691.948 1001.27 699.822C992.727 708.415 981.818 713.806 969.88 715.644C965.196 716.365 960.234 716.198 955.5 716.289C947.099 716.451 938.703 716.478 930.301 716.485C905.561 716.505 880.821 716.507 856.082 716.503C767.624 716.492 679.159 716.318 590.702 716.565L591.066 832.551C596.445 831.772 602.275 832.227 607.711 832.228C617.818 832.23 627.924 832.229 638.031 832.199C657.643 832.141 677.256 832.142 696.868 832.172C708.192 832.19 719.689 831.827 730.987 832.554L731.199 833.2L737.387 848.589C724.759 850.048 711.495 849.113 698.772 849.106C672.761 849.092 646.762 848.871 620.753 848.635C613.864 848.572 606.976 848.521 600.088 848.549C597.268 848.561 593.624 848.14 590.939 848.946C588.029 849.819 582.905 849.127 579.808 849.115C569.368 849.074 558.929 849.019 548.489 848.974C516.91 848.839 485.328 848.93 453.75 848.807C436.62 848.74 419.492 848.329 402.361 848.365C363.341 848.445 324.41 850.206 285.417 850.75L285.5 851.297C286.561 852.066 287.179 852.136 287.403 853.493C285.156 854.86 281.158 854.536 278.548 855.209C277.67 855.435 276.899 856.214 276.223 856.792C274.621 854.051 274.409 850.301 273.395 847.334L273.382 846.96C273.182 844.902 272.892 843.721 273.686 841.75C274.151 841.417 274.546 840.954 275.08 840.75C275.814 840.47 277.72 840.731 278.624 840.723C282.306 840.692 285.983 840.607 289.665 840.486C290.282 838.006 290.534 835.585 290.769 833.053ZM101.847 129.754L79.9413 129.935L80.034 641.948L922.75 641.531L944.248 641.499L944.529 129.947L101.847 129.754Z"/>
	<!-- <path fill="white" transform="scale(0.291992 0.291992)" d="M124.592 147.278C145.2 146.235 166.222 147.029 186.871 147.042C224.451 147.066 262.031 147.013 299.612 147.024C417.381 147.059 535.15 147.236 652.918 147.231C710.346 147.228 767.783 147.58 825.209 147.42C843.395 147.369 861.575 147.016 879.762 147.06C888.528 147.082 898.271 146.412 906.859 148.034C912.977 149.188 919.237 153.163 922.78 158.321L923.149 158.874C925.218 161.887 926.645 165.173 927.445 168.75C928.386 172.952 927.998 177.617 928.005 181.918C928.018 189.655 928.007 197.392 927.989 205.129C927.917 235.968 927.631 266.809 927.618 297.648C927.589 365.44 927.738 433.235 927.781 501.028C927.794 521.659 927.586 542.289 927.641 562.919C927.671 574.462 928.322 586.181 927.839 597.702C927.64 602.458 926.341 607.11 923.808 611.166C920.093 617.116 914.451 622.169 907.442 623.632C905.021 624.137 902.346 624.095 899.875 624.192C891.635 624.611 883.191 624.245 874.932 624.249C858.977 624.257 843.025 624.252 827.07 624.114C793.163 623.819 759.223 624.022 725.314 624.024C603.616 624.033 481.919 624.069 360.222 624.007C302.513 623.978 244.801 623.891 187.093 623.947C174.01 623.96 160.923 623.928 147.842 624.169C142.11 624.275 136.379 624.408 130.647 624.473C127.212 624.512 123.661 624.726 120.262 624.152L119.5 624.01C116.688 623.508 114.077 622.597 111.554 621.242C104.865 617.651 99.6557 610.879 97.6764 603.556C95.9844 597.296 96.5707 590.528 96.6309 584.106C96.7041 576.315 96.7174 568.526 96.712 560.734C96.6874 525.21 96.9663 489.684 96.9898 454.159C97.0325 389.608 96.9225 325.057 96.9986 260.508C97.0197 242.561 96.8437 224.599 96.729 206.652C96.6661 196.819 96.3535 186.9 96.7336 177.078C96.9684 171.009 97.7062 165.613 100.705 160.25C103.957 154.433 110.121 149.907 116.555 148.273C119.152 147.613 121.928 147.488 124.592 147.278Z"/> -->
</svg>

