<?xml version="1.0" encoding="utf-8" ?>
<svg xmlns="http://www.w3.org/2000/svg" xmlns:xlink="http://www.w3.org/1999/xlink" width="299" height="299">
	<!-- <path fill="#A9A9A9" transform="scale(0.291992 0.291992)" d="M1012.13 633.038L1010.56 660.18L1010.42 675.691L1009.19 956.344C1009.06 959.114 1009.26 962.439 1008.72 965.124L1007.81 972.496L999.997 972.242L999.291 942.844C999.004 941.848 999.212 940.014 999.187 938.945C999.121 936.138 999.056 933.331 998.987 930.525C998.458 909.093 998.47 887.704 998.565 866.265C998.873 797.524 999.344 728.777 999.496 660.037L1002.75 659.866C1004.59 658.015 1004.53 654.376 1004.84 651.844L1005.36 636.27L1012.13 633.038Z"/> -->
	<path fill="white" transform="scale(0.291992 0.291992)" d="M999.496 660.037C988.741 659.053 977.734 659.556 966.948 659.688C961.375 659.757 955.541 660.242 950.046 659.191C949.149 657.594 948.686 655.739 948.112 654C948.668 652.356 948.368 650.417 948.317 648.702C948.221 645.443 948.11 642.185 947.997 638.926C940.44 639.013 927.413 640.945 921.456 635.752C920.241 634.692 919.237 633.309 918.946 631.694C917.856 625.651 918.783 618.175 918.735 612C918.566 590.245 919.269 568.674 918.064 546.93C917.94 544.688 918.342 542.445 919.966 540.776C921.02 539.693 922.252 538.922 923.75 538.666C930.911 537.444 939.521 538.251 946.821 538.233C964.206 538.19 981.563 538.214 998.946 538.602C1001.46 538.954 1007.13 539.245 1008.9 541.047C1010.41 542.652 1012.56 544.689 1013.25 546.817C1014.46 550.545 1013.94 555.545 1013.95 559.429C1013.98 566.572 1013.98 573.716 1013.99 580.859C1014 583.906 1013.38 588.181 1014.91 590.75C1013.84 591.763 1013.39 591.96 1013.26 593.5C1013.07 595.941 1013.52 598.845 1013.56 601.346C1013.66 607.977 1013.75 614.611 1013.67 621.242C1013.62 625.255 1013.87 629.311 1012.13 633.038L1005.36 636.27L1004.84 651.844C1004.53 654.376 1004.59 658.015 1002.75 659.866L999.496 660.037ZM931.76 552.007L932.018 583.321L999.612 583.345L1000.02 552.245L931.76 552.007ZM988.287 595.722L932.036 595.739L932.248 625.246L944.625 625.258L999.03 624.463L998.833 595.388L988.287 595.722ZM961.908 637.269L961.984 646.986L992.341 647.28L992.517 637.827L961.908 637.269Z"/>
	<path fill="white" transform="scale(0.291992 0.291992)" d="M25.6831 538.442C44.7287 538.424 63.7678 538.46 82.8133 538.59C86.7735 538.618 97.8195 537.82 100.824 539.217C101.622 539.588 102.813 540.62 103.417 541.25C103.879 541.732 105.163 543.273 105.326 543.914C106.014 546.618 105.485 550.938 105.491 553.823C105.506 562.173 105.508 570.522 105.512 578.871C105.518 590.198 105.536 601.525 105.559 612.852C105.571 618.356 105.982 624.291 105.463 629.75C105.198 632.54 103.582 634.703 101.422 636.394C100.368 637.219 99.2375 637.585 98 638.025L97.1795 638.33C95.2484 638.844 92.6838 638.512 90.6517 638.508C85.7689 638.498 80.867 638.534 75.991 638.273C76.0702 643.762 76.999 650.172 76.1141 655.5L76.0318 656.049C75.7733 657.559 75.1472 658.126 74.1047 659.144C70.335 660.794 63.1577 659.503 58.9121 659.477C50.7985 659.428 42.6858 659.47 34.573 659.579C31.3871 659.277 25.1909 660.504 22.4854 659.271C21.9667 659.034 20.5753 658.236 20.2662 657.75C19.9906 657.317 19.9423 655.157 19.8769 654.502C19.4947 650.671 19.2386 646.798 19.1238 642.95C19.0633 640.922 19.3973 638.175 18.5324 636.395C17.6194 636.316 16.9972 636.224 16.1419 635.852L15.4754 635.533C14.0701 634.313 12.1818 632.909 11.267 631.274C10.6388 630.151 10.1945 628.684 10.0684 627.409C9.17522 618.381 10.0588 608.614 10.0054 599.5C9.98009 595.179 9.31557 590.931 9.23052 586.627C9.05316 577.652 9.31932 568.611 9.39388 559.633C9.42887 555.42 8.88729 550.295 10.1248 546.234C11.0982 543.039 14.1288 541.687 16.822 540.205C19.7494 538.732 22.4775 538.597 25.6831 538.442ZM23.0182 552.226L23.443 583.267L90.75 583.533L91.9091 582.981L92.0146 552.001L23.0182 552.226ZM24.0169 596.062L24.0809 624.995L91.25 624.986C91.498 624.653 91.8761 624.386 91.9939 623.988C92.4348 622.5 91.9806 619.232 91.9759 617.59C91.9553 610.393 91.9418 603.195 91.8959 595.998L24.0169 596.062ZM32.5476 636.715L32.3995 647.19L61.75 647.305C63.2308 645.24 62.6005 639.77 62.6398 637.069L32.5476 636.715Z"/>
	<path fill="white" transform="scale(0.291992 0.291992)" d="M969.98 14.8227C970.377 12.5492 970.523 10.0197 972.531 8.53638C973.963 7.47866 976.503 6.97117 978.25 7.3339C979.896 7.67569 980.466 8.27794 981.561 9.5C982.517 13.1475 982.186 17.2252 982.177 20.9827C982.162 27.1257 982.139 33.2687 982.113 39.4116C982.063 51.016 982.056 62.6259 981.87 74.2289C981.756 81.4045 982.384 90.1973 980.111 97L979.896 97.6526C978.366 102.186 974.726 106.666 970.5 108.982L969.992 109.265C967.56 110.551 964.647 110.551 961.961 110.7C956.698 110.991 951.442 110.997 946.173 110.997C931.945 110.997 917.718 110.935 903.497 110.459L903.495 972.386C924.149 971.782 944.884 971.815 965.547 972.095C973.358 972.201 981.161 972.333 988.973 972.343C992.575 972.347 996.424 972.611 999.997 972.242L1007.81 972.496L1010 973.457C1012.03 974.279 1013.84 975.034 1015.11 976.973C1015.7 977.878 1016.06 978.943 1015.9 980.004C1015.58 982.113 1014.35 984.159 1012.56 985.34C1011.99 985.719 1011.44 985.897 1010.75 985.97C1007.52 986.31 1003.68 985.648 1000.36 985.617C990.86 985.527 981.358 985.518 971.858 985.484C940.98 985.373 910.107 985.543 879.23 985.505C852.459 985.472 825.694 985.952 798.922 985.965C726.981 985.997 655.036 985.629 583.096 985.47C551.616 985.4 520.16 984.881 488.672 985.023C461.02 985.149 433.374 985.922 405.723 985.938C306.367 985.997 207.006 985.585 107.649 985.48C85.5876 985.457 63.5208 985.332 41.4605 985.471C34.6447 985.514 27.8372 985.611 21.0233 985.781C18.1663 985.853 13.6626 986.586 11.0185 985.644C9.62175 985.147 8.29176 983.972 7.65775 982.634C6.97428 981.192 6.67193 979.241 7.34904 977.743C8.18727 975.889 10.1795 974.591 12 973.862L16.9349 972.21L25.4055 971.949L120.502 972.843L120.499 110.479C105.769 110.712 91.0961 111.037 76.3528 111.029C70.5374 111.026 63.9642 111.603 58.2425 110.7L57.5 110.571L56.0469 110.326C52.0034 109.45 47.8086 104.915 45.7946 101.455C43.9612 98.3057 43.4372 94.587 43.0627 91.0176C42.2622 83.3885 42.373 75.568 42.2451 67.9003C42.0416 55.6978 41.9086 43.5049 41.9529 31.3002C41.9674 27.2902 41.9908 23.2802 42.0345 19.2704C42.0608 16.85 41.8621 14.0776 42.585 11.75C42.9772 10.4869 44.2889 9.36838 45.5 8.87311C47.4544 8.07389 50.0567 8.11113 51.9288 9.13619C54.15 10.3524 54.1949 12.2901 54.7866 14.5182L54.9528 26.4658L927.703 25.5804C936.693 25.7268 945.695 25.5371 954.686 25.4972C959.393 25.4764 965.042 24.9743 969.607 26.0353L969.98 14.8227ZM889.235 110.75L888.644 110.801L134.049 111.032L134.027 972.075L184.433 972C183.876 914.805 184.353 857.635 184.177 800.443C183.593 610.107 183.881 419.754 184.436 229.42C184.446 225.767 183.545 220.038 186.25 217.223C189.58 215.881 193.37 214.566 196.955 215.75L197.988 217.544C202.544 218.562 208.679 217.801 213.444 217.749C223.789 217.638 234.133 217.509 244.479 217.49C291.193 217.404 337.966 217.109 384.676 217.641C403.46 217.855 422.232 218.019 441.019 218.018C444.717 218.018 448.415 218.015 452.113 218.007C453.655 218.003 455.658 218.308 457.048 217.563L457.307 217.101C458.404 215.222 459.584 214.201 461.72 213.66C463.569 213.191 466.259 213.589 467.848 214.652C469.926 216.042 471.86 218.203 472.294 220.717C472.568 222.304 472.22 223.469 471.875 224.99C470.504 231.027 470.971 238.017 470.983 244.185C471 253.333 471.061 262.48 471.164 271.627C471.394 292.065 471.277 312.518 471.262 332.958C471.186 434.386 470.985 535.816 470.993 637.25L470.501 972.14L553.944 972.252C553.672 829.421 553.85 686.595 553.999 543.763C554.059 486.373 553.71 428.993 553.953 371.608C554.124 331.226 553.957 290.836 554.005 250.453C554.014 242.73 554.191 234.966 554.006 227.25C553.964 225.471 553.21 222.649 553.592 221.03C553.785 220.209 556.097 216.665 556.75 215.949C557.789 214.808 559.777 214.556 561.25 214.56C562.903 214.565 565.222 214.937 566.474 216.002C566.932 216.892 566.991 217.634 567.976 217.98C569.521 218.524 571.781 218.248 573.407 218.248C577.355 218.249 581.302 218.224 585.25 218.208C600.491 218.147 615.731 218.078 630.971 217.978C675.44 217.686 719.93 217.191 764.399 217.405C776.245 217.462 788.097 217.449 799.939 217.774C808.171 218 817.626 219.025 825.75 218.015L826.038 217.473C826.552 216.603 827.159 216.014 827.862 215.299C830.445 214.729 834.592 214.293 836.935 215.814C838.857 217.062 840.661 219.386 841.757 221.361C840.642 232.081 840.733 242.902 840.746 253.67C840.762 266.864 840.861 280.058 840.86 293.252C840.858 309.152 840.372 325.038 840.267 340.934C840.12 362.988 840.341 385.043 840.268 407.096C840.022 481.268 840.578 555.469 840.747 629.643C840.866 681.677 840.544 733.718 840.502 785.754C840.471 823.565 840.162 861.368 840.065 899.176C840.002 923.4 840.648 947.816 839.439 972L890.024 972.292L889.927 111.25L889.235 110.75ZM426.155 614.75L197.454 614.935C198.805 646.372 197.949 678.145 197.968 709.619C198.004 769.717 197.812 829.817 197.884 889.914C197.892 897.226 197.491 970.46 198.034 971.5C198.187 971.794 198.511 971.96 198.75 972.19L200.25 972.245L426.502 972.155C426.822 939.103 426.455 906.049 426.525 872.996C426.637 820.039 427.009 767.114 426.739 714.149C426.622 691.257 426.945 668.369 427.035 645.477C427.073 635.656 427.998 624.98 426.981 615.25L426.155 614.75ZM825.631 614.75L597.963 615.136C598.137 703.507 598.101 791.88 598.425 880.25C598.513 904.332 598.248 928.424 598.658 952.503C598.763 958.65 597.719 965.956 598.783 971.916L599.75 972.255L825.992 972.263C827.414 942.653 826.24 912.611 826.232 882.955C826.217 830.154 826.434 777.35 826.449 724.548C826.456 699.791 826.458 675.029 826.629 650.272C826.686 642.1 826.743 633.931 826.701 625.758C826.683 622.318 827.026 618.383 826.455 615.026L825.631 614.75ZM197.737 276.918L197.573 604.992L425.75 605.27L426.904 604.943C427.474 601.156 427.091 597.073 427.051 593.246C426.986 587 426.997 580.755 426.994 574.509C426.982 550.805 426.986 527.102 426.97 503.398C426.934 449.592 426.998 395.79 427 341.984C427.001 320.515 427.555 298.971 427.23 277.515L197.737 276.918ZM669.685 276.751L598.113 277.096L598.245 605.238L750.905 605.253L826.507 605.002L826.685 277.43C825.476 276.607 820.376 277.054 818.7 277.051C810.268 277.035 801.836 277.026 793.404 277.01C752.164 276.93 710.925 276.695 669.685 276.751ZM54.9528 26.4658C55.1381 40.2646 55.3227 54.064 55.553 67.8621C55.715 77.5655 55.3009 87.7756 57.1806 97.3163C64.2494 98.0672 71.448 97.9317 78.5498 97.9471C88.2421 97.9681 97.9345 97.9632 107.627 97.9739C138.916 98.0086 170.205 98.0648 201.494 98.0684C301.527 98.0798 401.56 98.2206 501.593 98.2544C605.205 98.2894 708.814 98.0887 812.426 98.0161C844.232 97.9938 876.038 97.9723 907.844 97.9521C927.252 97.9397 947.37 98.9428 966.664 96.7493C968.866 90.2854 968.246 82.0281 968.504 75.25C969.129 58.871 969.44 42.4265 969.607 26.0353C965.042 24.9743 959.393 25.4764 954.686 25.4972C945.695 25.5371 936.693 25.7268 927.703 25.5804L54.9528 26.4658ZM456.239 232.25L440.512 232.5L439.53 971.25C441.176 972.394 443.626 971.922 445.625 971.92L458.01 971.992L457.346 232.616L456.239 232.25ZM567.275 232.541L566.701 972.002L584.99 971.999L584.447 232.451L583.936 232.487L567.275 232.541ZM197.992 232.878L198.245 267.556C254.241 267.867 310.231 267.983 366.228 268.011C380.112 268.017 393.996 268.003 407.88 268.034C414.056 268.048 421.244 268.934 427.25 267.866L427.504 266.25L428.03 233.008L197.992 232.878ZM808.615 233.25L597.723 233.486L598.097 267.755L616.686 267.968L826.802 268.282L826.779 232.94L808.615 233.25Z"/>
	<path fill="white" transform="scale(0.291992 0.291992)" d="M651.903 311.176L653.502 311.063C679.239 310.087 705.293 310.907 731.064 310.938C739.777 310.949 748.49 310.962 757.203 310.983C762.095 310.995 767.401 310.639 772.237 311.432C775.656 311.993 778.737 313.592 781.258 315.948C784.223 318.72 786.428 322.076 787.037 326.152C787.856 331.635 787.259 338.123 787.23 343.717C787.168 355.972 786.978 368.216 787.106 380.472C787.509 418.921 787.606 457.414 787.435 495.865C787.322 521.101 786.533 546.461 787.535 571.678L785.048 574.543C781.319 577.856 777.268 577.231 772.625 577.104C740.361 576.809 708.041 576.68 675.779 577.048C665.472 577.165 655.16 577.94 644.858 577.996C643.842 578.002 643.187 577.935 642.25 577.49C640.037 576.44 637.355 572.962 636.815 570.6C636.283 568.277 636.705 565.626 636.725 563.25C636.755 559.802 636.653 556.345 636.619 552.895C636.403 531.014 636.51 509.12 636.519 487.237C636.533 451.719 636.535 416.201 636.504 380.683C636.494 368.985 636.487 357.287 636.491 345.589C636.493 339.817 636.186 333.832 636.543 328.084C636.753 324.701 638.026 321.188 639.924 318.395C642.887 314.035 646.905 312.146 651.903 311.176ZM654.999 325.078L652.117 325.75C650.677 328.945 651.499 335.209 651.511 338.837C651.542 347.803 651.584 356.769 651.541 365.735C651.223 431.642 651.376 497.572 651.569 563.48L770.125 562.997L772.485 562.87C772.929 562.154 772.997 561.786 773.009 560.938C773.138 551.993 772.73 543.019 772.772 534.067C772.962 493.393 772.941 452.727 772.943 412.051C772.943 393.162 772.973 374.272 772.986 355.383C772.994 345.525 773.505 335.353 772.815 325.54C760.099 323.965 746.171 325.014 733.302 325.038C707.203 325.086 681.097 325.301 654.999 325.078Z"/>
	<path fill="white" transform="scale(0.291992 0.291992)" d="M270.251 311.25C293.006 310.866 315.787 310.991 338.544 310.976C345.42 310.972 352.296 310.971 359.172 310.984C363.956 310.993 368.834 310.781 373.561 311.635C377.811 312.404 381.621 314.946 384.047 318.526L384.387 319.045C386.218 321.769 387.415 325.101 387.715 328.375C388.302 334.77 388.059 341.416 388.115 347.849C388.228 360.817 388.141 373.786 388.172 386.755C388.261 424.218 388.281 461.69 388.222 499.152C388.183 523.3 387.384 547.814 389.013 571.891L387.081 574.055C386.007 575.141 383.725 577.3 382.29 577.747C380.622 578.266 376.067 577.358 374.147 577.263C368.442 576.979 362.701 577.038 356.989 577.005C330.449 576.999 303.907 576.945 277.366 576.998C266.681 577.02 255.626 578.2 245 577.485C243.453 577.381 241.83 577.067 240.64 575.994C238.681 574.227 237.625 571.503 237.602 568.906L237.091 332.443C236.924 326.299 237.749 321.503 242.175 316.92C249.271 309.573 260.882 311.399 270.251 311.25ZM267.25 325.253L252.534 325.73L252.241 563.572L356.711 563.009L373.172 563.004L372.923 325.28L267.25 325.253Z"/>
	<path fill="white" transform="scale(0.291992 0.291992)" d="M723.191 651.251C735.738 651.215 748.279 651.243 760.824 651.467C765.4 651.549 771.753 651.02 776.08 652.275C778.309 652.922 780.644 654.321 782.324 655.906C785.262 658.678 786.887 661.851 787.029 665.915C787.754 686.683 787.012 707.76 787.002 728.56C786.982 770.964 786.967 813.377 786.988 855.782C786.994 867.6 787.143 879.413 787.369 891.229C787.447 895.292 787.568 899.355 787.62 903.418C787.637 904.743 787.838 907.138 787.475 908.376C787.156 909.467 785.338 911.332 784.532 912.164C782.533 914.225 780.049 916.404 777.179 917.059C774.33 917.71 770.98 917.491 768.064 917.514C762.19 917.56 756.314 917.514 750.44 917.466C733.662 917.328 716.906 917.152 700.125 917.25C689.316 917.279 678.515 917.177 667.707 917.116C661.707 917.082 655.177 917.574 649.28 916.676L648.5 916.547C645.656 916.117 643.752 915.281 641.561 913.354C638.481 910.645 636.693 906.87 636.528 902.75C635.704 882.158 636.605 861.197 636.713 840.572C636.867 811.282 636.495 781.97 636.513 752.676C636.525 733.721 636.746 714.769 636.752 695.814C636.754 689.416 636.757 683.018 636.766 676.621C636.771 672.703 636.574 668.604 637.076 664.718C637.535 661.168 639.609 657.574 642.125 655.086C644.077 653.157 646.391 651.95 649.089 651.503C651.565 651.093 654.35 651.288 656.859 651.278C661.87 651.258 666.88 651.264 671.891 651.262C688.991 651.254 706.091 651.252 723.191 651.251ZM675.937 665.263L651.476 665.556C652.045 687.568 651.499 709.601 651.496 731.619C651.49 770.065 651.667 808.503 651.563 846.949C651.527 860.508 651.502 874.068 651.499 887.627C651.499 891.191 651.512 894.755 651.523 898.319C651.528 900.113 651.338 902.108 651.855 903.826L748.994 903.627L772.841 903.785C772.84 887.066 772.482 870.348 772.479 853.627C772.471 811.661 772.387 769.681 772.516 727.719C772.567 711.126 773.021 694.551 773.012 677.955C773.01 674.932 773.008 671.908 772.998 668.885C772.994 667.757 773.189 666.265 772.739 665.247L675.937 665.263Z"/>
	<path fill="white" transform="scale(0.291992 0.291992)" d="M321.443 651.254C334.822 651.203 348.192 651.291 361.568 651.611C366.249 651.723 371.894 651.325 376.484 652.206C378.789 652.649 381.206 653.958 382.875 655.578C386.13 658.737 387.903 662.949 387.986 667.464C388.938 719.414 388.032 771.439 388.023 823.394C388.019 841.901 388.035 860.409 388.027 878.917C388.023 887.339 388.771 896.553 387.941 904.896C387.668 907.639 385.467 910.716 383.576 912.617C381.498 914.708 378.71 916.879 375.733 917.347C368.867 918.425 360.474 917.576 353.445 917.562C337.005 917.531 320.565 917.483 304.125 917.431C292.964 917.414 281.804 917.406 270.644 917.432C263.206 917.449 255.262 917.933 247.902 916.79C245.948 916.487 243.276 915.743 241.75 914.452C239.323 912.401 237.227 909.535 237.088 906.25C236.96 903.216 237.463 899.996 237.473 896.92C237.504 887.701 237.465 878.482 237.486 869.263C237.554 839.299 237.589 809.327 237.454 779.363C237.336 753.148 237.225 726.94 237.267 700.724C237.28 692.822 237.295 684.92 237.31 677.018C237.318 672.935 237.063 668.681 237.434 664.622C237.684 661.88 239.251 658.761 241.122 656.75C243.15 654.57 245.985 652.715 248.912 652.078C251.813 651.447 255.153 651.635 258.126 651.597C263.428 651.529 268.732 651.544 274.035 651.535C289.839 651.506 305.639 651.414 321.443 651.254ZM294.999 665.25L252.072 665.866L252.005 904L331.539 903.791L372.986 903.988L373.375 665.03L294.999 665.25Z"/>
	<path fill="white" transform="scale(0.291992 0.291992)" d="M278.925 172.225C287.726 171.557 296.896 172.048 305.733 172.033C323.032 172.004 340.301 172.02 357.597 172.331C371.684 172.585 385.768 172.133 399.855 172.109C412.952 172.087 426.05 172.47 439.15 172.473C491.653 172.485 544.17 172.68 596.672 172.444C645.646 172.223 694.675 171.581 743.646 171.993C745.948 172.012 747.708 172.404 749.655 173.68C751.248 174.724 752.695 176.938 752.817 178.875C752.897 180.134 752.229 181.549 751.493 182.531C749.958 184.579 748.094 185.566 745.624 186.009L276.704 186.344C273.591 184.731 272.212 183.888 270.558 180.75C270.415 178.868 270.35 177.593 271.459 176C273.3 173.355 275.915 172.794 278.925 172.225Z"/>
</svg>

