<?xml version="1.0" encoding="utf-8" ?>
<svg xmlns="http://www.w3.org/2000/svg" xmlns:xlink="http://www.w3.org/1999/xlink" width="199" height="199">
	<path fill="white" transform="scale(0.155599 0.194661)" d="M782.833 55.8957C789.282 55.5369 797.448 54.58 803.734 56.1394C809.922 57.6746 815.239 61.3739 818.438 66.9371C820.134 69.8877 821.613 73.7761 820.592 77.1872C818.475 84.2644 812.137 90.0854 806.979 95.0808C793.485 108.148 779.497 120.715 765.916 133.698C692.343 204.033 618.094 273.628 543.47 342.848C512.381 371.686 480.709 399.856 449.956 429.065C421.227 456.351 392.983 484.153 364.298 511.488C336.203 538.26 307.665 564.561 279.604 591.369C266.286 604.091 252.829 616.682 239.596 629.49C232.442 636.415 225.389 643.447 218.272 650.411C210.99 657.536 203.885 664.591 194.771 669.362C193.367 669.885 191.916 670.42 190.425 670.637C182.864 671.736 173.77 668.493 167.885 663.821C162.393 659.461 158.151 651.53 157.517 644.532C156.746 636.02 159.221 629.838 164.747 623.407C174.908 611.581 186.811 601.187 198.27 590.653C211.446 578.54 224.557 566.317 237.593 554.053C288.249 506.394 339.111 458.876 389.492 410.93C445.801 357.345 501.894 303.454 558.503 250.197C590.521 220.076 622.937 190.392 655.165 160.5C680.289 137.197 704.866 113.293 730.037 90.0499C740.347 80.5299 750.373 70.2887 761.391 61.5857C767.963 56.3943 774.86 56.5197 782.833 55.8957Z"/>
	<path fill="white" transform="scale(0.155599 0.194661)" d="M369.288 450.832L370.312 451.679C369.311 452.99 368.297 454.204 367.681 455.752L349.7 472.538L341.442 480.04C340.319 479.358 340.418 479.282 340.03 478.005L369.288 450.832Z"/>
	<defs>
		<linearGradient id="gradient_0" gradientUnits="userSpaceOnUse" x1="512.453" y1="316.90302" x2="520.41901" y2="309.237">
			<stop offset="0" stop-color="#3E3E3E"/>
			<stop offset="1" stop-color="#565653"/>
		</linearGradient>
	</defs>
	<path fill="white" transform="scale(0.155599 0.194661)" d="M554.749 276.553L555.021 278.505L516.631 315.7L512.515 318.987L510.554 316.714C515.271 313.385 519.68 308.921 524.028 305.077C534.492 295.827 544.7 286.251 554.749 276.553Z"/>
	<path fill="white" transform="scale(0.155599 0.194661)" d="M286.597 527.57C289.083 524.051 293.543 520.613 296.694 517.574C305.045 509.519 313.507 500.708 322.596 493.538L340.03 478.005C340.418 479.282 340.319 479.358 341.442 480.04C338.27 483.973 333.901 487.295 330.16 490.686C323.216 496.98 316.309 503.321 309.387 509.639C307.571 511.296 306.296 513.243 304.55 514.934C297.924 521.353 290.987 527.722 283.971 533.734L262.815 554.238L259.375 556.815L258.753 556.542L258.809 555.648L258.473 554.567L286.597 527.57Z"/>
	<path fill="white" transform="scale(0.155599 0.194661)" d="M626.194 208.673L627.821 209.716L630.128 209.047C628.396 210.783 626.664 212.238 625.816 214.58C625.497 215.46 624.734 216.011 624.056 216.615C624.276 217.666 624.392 217.876 623.693 218.803L592.188 249.881C591.774 248.464 592.171 248.219 592.812 246.935L593.594 247.404L593.867 246.818C594.471 245.73 595.356 244.965 596.25 244.122L596.094 242.869C594.848 244.085 594.058 244.941 592.497 245.682L587.399 249.667C586.374 250.457 585.562 251.433 584.645 252.336C583.488 253.474 584.728 252.303 583.122 253.184C580.728 254.497 579.55 257.515 576.872 258.81C575.27 259.585 573.428 261.76 572.023 263.002C566.557 267.833 561.035 274.719 555.021 278.505L554.749 276.553C555.158 275.389 556.867 274.05 557.765 273.151C560.561 270.351 563.367 267.565 566.206 264.808C575.349 255.932 584.59 247.138 593.708 238.244C596.507 235.513 598.724 232.241 601.672 229.534C604.22 227.195 607.325 225.608 609.962 223.388C615.52 218.709 620.748 213.504 626.194 208.673Z"/>
	<defs>
		<linearGradient id="gradient_1" gradientUnits="userSpaceOnUse" x1="705.02301" y1="145.05299" x2="697.15399" y2="137.19">
			<stop offset="0" stop-color="white"/>
			<stop offset="1" stop-color="white"/>
		</linearGradient>
	</defs>
	<path fill="white" transform="scale(0.155599 0.194661)" d="M660.538 176.447L771.562 69.8156L772.344 70.0202C771.551 72.078 766.436 77.052 764.468 78.1275C762.68 79.1047 761.174 81.0021 759.724 82.4576C756.77 85.4211 753.865 88.4448 750.875 91.3696C748.17 94.0149 744.485 96.5056 741.777 99.1488C724.979 115.549 707.926 131.402 691.559 148.317L692.181 149.099L691.927 149.451C691.047 150.771 690.395 152.363 689.681 153.788L690 154.413L690.752 153.778C691.345 153.282 691.831 152.946 692.505 152.551C697.502 149.63 700.645 142.96 705.781 140.19C707.746 139.131 709.141 136.796 710.938 135.658C715.978 132.466 719.171 127.152 723.497 123.045C726.183 120.494 730.146 117.241 733.281 115.184C735.697 113.599 737.097 110.822 738.919 108.877C741.242 106.395 743.713 103.924 746.194 101.6C747.636 100.248 748.935 100.406 749.688 98.149C750.548 97.7802 750.65 97.8265 751.25 97.0549C751.836 96.3008 752.448 95.6897 753.125 95.0232C754.155 94.0099 754.567 93.6529 755.938 93.1477L756.556 93.4603C755.304 94.6618 754.501 95.3518 753.747 96.8955C753.647 97.099 753.12 97.5678 752.975 97.7068L750.652 99.9298C750.129 100.479 750.297 100.366 749.997 101.272L747.401 103.379C745.355 104.947 743.645 107.968 741.247 108.773L740.893 109.44C740.125 110.817 738.989 112.024 737.497 112.524C736.672 113.545 736.181 114.476 735.622 115.65C734.476 116.339 734.186 116.2 733.747 117.526L733.12 117.84C731.961 118.463 731.184 119.503 730.27 120.417C729.111 121.576 730.356 120.39 728.747 121.276C727.521 121.952 727.079 123.076 725.622 123.777C725.394 123.887 724.967 124.354 724.8 124.521L724.396 124.92C723.723 125.664 724.345 125.053 723.747 126.278C723.647 126.481 723.12 126.95 722.975 127.089L720.652 129.312C719.933 130.067 720.658 129.369 719.997 130.654C717.956 134.622 711.61 137.1 708.221 139.907C704.614 142.894 701.598 146.469 698.089 149.55C694.255 152.916 690.018 155.763 686.061 158.98C683.766 160.846 681.798 163.336 679.027 164.428C674.815 166.087 670.686 171.598 667.195 174.63C665.839 175.808 663.063 177.725 662.323 179.31L661.872 180.745C661.042 183.473 658.119 185.975 655.776 187.438C652.879 189.63 649.491 191.2 646.716 193.382C640.855 197.989 635.532 203.883 630.128 209.047L627.821 209.716L626.194 208.673L660.538 176.447Z"/>
	<path fill="white" transform="scale(0.155599 0.194661)" d="M400.922 420.876C401.456 419.721 403.261 418.33 404.191 417.41C407.236 414.4 410.283 411.392 413.333 408.389C424.727 397.171 436.57 386.445 448.029 375.303C454.218 369.286 459.982 362.84 466.315 356.944C468.824 354.609 471.79 353.221 474.302 350.989C486.704 339.965 498.514 328.142 510.554 316.714L512.515 318.987L475.319 355.399L477.191 355.243L475.156 357.278L474.378 356.965L474.068 357.297C473.259 358.15 473.046 358.454 471.878 358.841L470.938 360.407L469.981 360.4C469.133 361.478 468.392 362.355 467.313 363.214L462.841 367.329L463.444 367.902C462.996 369.236 460.349 372.268 459.062 372.91L458.128 373.219C456.654 374.085 456.086 375.479 454.378 376.345C452.024 377.538 445.961 383.417 445.003 385.722C443.866 388.459 438.562 391.291 436.246 393.299C432.235 396.775 428.494 400.735 424.806 404.545C423.024 406.386 420.658 408.342 419.497 410.64C415.278 414.236 402.26 427.545 398.006 427.988L367.681 455.752C368.297 454.204 369.311 452.99 370.312 451.679L369.288 450.832C372.818 446.531 377.535 442.709 381.638 438.949C388.138 432.993 394.556 426.975 400.922 420.876Z"/>
	<path fill="white" transform="scale(0.155599 0.194661)" d="M1103.82 55.9419C1141.88 55.7214 1178.32 66.5705 1206.04 93.7746C1221.28 108.73 1232.44 128.312 1236.91 149.262C1238.78 158.025 1239.19 167.238 1239.25 176.188C1239.47 213.808 1238.85 251.503 1238.77 289.133C1238.74 302.45 1238.85 315.768 1238.86 329.085C1238.86 339.673 1239.52 350.388 1236.92 360.733C1232.49 378.311 1222.97 393.077 1210.3 405.819C1192 424.223 1168.21 436.248 1142.31 439.141C1130.88 440.418 1119.22 439.965 1107.73 439.884C1092.52 439.777 1077.3 439.749 1062.08 439.742C1051.76 439.738 1041.14 439.36 1030.86 440.243C1010.19 442.019 991.418 447.324 973.627 458.184C959.11 467.046 946.228 479.82 933.69 491.263C911.695 511.336 890.313 532.071 868.562 552.402C843.181 576.124 818.184 600.242 792.824 623.983C735.232 677.898 677.416 731.576 620.324 786.03C601.189 804.281 582.07 822.552 562.63 840.48C547.819 854.139 532.67 867.423 517.916 881.153C503.994 894.107 489.922 906.889 475.938 919.774C465.963 928.965 456.247 938.467 445.511 946.784C436.456 953.799 426.204 959.189 415.289 962.675C392.754 969.873 369.813 968.04 346.54 968.03C326.997 968.022 307.455 967.958 287.912 967.911C251.986 967.826 216.079 968.214 180.156 968.267L173.795 968.304C165.093 968.338 156.351 968.305 147.734 966.922C121.476 962.706 94.1981 949.14 75.3071 930.309C58.381 913.437 45.9228 894.128 42.3119 870.023C40.9459 860.905 41.1161 851.573 41.0839 842.372C41.031 827.237 40.9994 812.101 41.0145 796.966C41.0255 786.063 40.4542 774.517 42.253 763.746C45.3328 745.305 57.4678 727.436 70.4749 714.391C90.4578 694.349 114.627 683.536 142.682 680.352C155.837 678.86 169.394 679.022 182.621 678.978C204.431 678.905 226.23 679.044 248.038 679.192C266.975 679.321 287.939 680.917 306.459 676.928C320.135 673.983 332.256 668.134 343.311 659.582C359.429 647.114 373.673 631.9 388.351 617.789C411.567 595.47 434.972 573.108 458.817 551.469C483.101 529.431 507.715 507.847 531.705 485.465C574.647 445.401 616.673 404.369 659.663 364.355C667.098 357.435 674.903 350.942 682.445 344.147C711.885 317.624 741.444 291.029 769.892 263.442C813.166 221.478 856.468 179.489 900.522 138.342C914.284 125.488 927.99 112.547 941.965 99.927C955.608 87.6066 969.137 74.7389 985.798 66.5788C1009.29 55.0747 1034.44 56.0145 1059.86 56.0135C1074.51 56.0129 1089.16 55.9885 1103.82 55.9419Z"/>
	<defs>
		<linearGradient id="gradient_2" gradientUnits="userSpaceOnUse" x1="734.68799" y1="472.58099" x2="687.06299" y2="417.935">
			<stop offset="0" stop-color="black"/>
			<stop offset="1" stop-color="black"/>
		</linearGradient>
	</defs>
	<path fill="black" transform="scale(0.155599 0.194661)" d="M942.409 199.261L990.453 153.709L1015.77 175.96L1024.56 183.491L1018.18 189.607L464.594 708.814C443.11 708.818 420.125 706.445 398.894 709.583L528.638 587.691C529.548 585.677 533.962 582.529 535.696 580.942C543.954 573.381 552.282 565.896 560.54 558.335C578.429 541.954 595.638 524.808 613.991 508.928C614.874 507.583 616.793 506.284 618.022 505.192C619.147 502.7 624.548 498.758 626.666 496.757C635.05 488.839 643.209 480.627 651.778 472.915C655.38 468.268 661.355 463.885 665.698 459.8C677.193 448.988 688.508 437.921 700.549 427.71C700.913 426.078 709.821 418.711 711.561 417.079C730.249 399.553 749.132 382.208 768.072 364.956C780.211 353.9 791.857 342.256 803.805 330.99C830.988 305.357 858.216 279.784 885.131 253.862C904.141 235.553 922.825 216.966 942.409 199.261Z"/>
</svg>

