<?xml version="1.0" encoding="utf-8" ?>
<svg xmlns="http://www.w3.org/2000/svg" xmlns:xlink="http://www.w3.org/1999/xlink" width="512" height="512">
	<path fill="#38A3A5" transform="scale(0.5 0.5)" d="M0 539.71L-0 -0L1024 0L1024 514.653L1024 643.078L1024 702.975L1024 704.98L1024 746.333L1024 1024L-0 1024L0 739.328L0 702.205L0 644.605L0 608.606L0 539.71ZM130.627 607.071L10.2732 608.348L0 608.606L0 644.605L0 702.205L0 739.328L-0 1024L1024 1024L1024 746.333L1024 704.98L1024 702.975L1024 643.078C1005.41 643.991 986.638 643.538 968.026 643.524C939.977 643.505 911.929 643.575 883.88 643.57C841.328 643.561 798.778 643.459 756.226 643.459C725.234 643.459 694.041 643.803 663.073 642.85C658.386 642.706 653.587 642.534 648.923 642.025C648.004 641.925 647.639 641.488 646.817 641.204C645.597 640.784 643.294 640.967 641.97 640.919C638.831 640.513 634.964 640.996 631.766 641.057C623.738 641.209 615.815 641.499 607.773 641.355L607.455 640.881C604.911 640.547 602.695 640.422 600.117 640.698L600.908 641.189C597.308 641.756 582.403 642.186 579.606 640.66C577.815 639.943 573.91 640.314 571.981 640.569C570.309 641.471 567.429 640.999 565.495 640.986C559.645 640.948 553.796 640.936 547.946 640.961C517.847 641.09 487.683 641.63 457.591 640.822L457.457 640.248L455.288 640.126L455.209 640.716L431.002 640.379L430.6 639.027L429.736 639.994L424.437 640.028L427.5 640.776C416.397 641.28 405.312 641.617 394.194 641.427C389.254 641.343 383.793 641.479 378.935 640.742C376.18 643.251 372.651 643.098 369.017 643.334C349.824 644.582 330.231 643.222 311 643.171C269.858 643.062 228.703 642.963 187.563 643.203C180.536 643.244 173.51 643.314 166.484 643.414C162.943 643.464 158.966 643.196 155.487 643.774L155.639 607.321L130.627 607.071ZM0 539.71C1.98091 534.762 1.922 528.638 2.39401 523.369C3.14867 514.945 3.90358 506.497 4.76664 498.083C6.38133 482.343 8.33668 466.6 10.212 450.886C13.2266 425.626 17.2474 400.735 21.8187 375.732C21.8758 373.581 22.0173 371.549 22.3966 369.43C25.2036 361.845 25.7295 352.701 27.5817 344.732C29.7985 335.195 32.5818 324.07 41.3526 318.611C44.0828 317.281 46.7301 316.782 49.713 316.354C50.787 316.081 51.8881 315.957 52.9838 315.796C53.4598 315.341 53.8995 314.903 54.2765 314.36C58.6471 308.06 66.6686 302.691 73.4874 299.295C79.3648 296.367 85.0434 295.237 91.5523 294.719C107.058 293.484 122.892 294.017 138.451 294.025C164.12 294.038 189.79 294.149 215.459 294.072C233.683 294.018 251.907 294 270.132 293.989C278.771 293.984 288.985 292.989 297.441 294.506C299.884 295.682 305.747 294.905 308.584 294.928C317.708 295.003 327.746 296.063 336.768 295.023L341.1 294.744C427.303 293.513 513.555 295.281 599.761 294.595C619.91 294.435 640.063 294.494 660.213 294.493C669.098 294.492 678.831 295.282 687.605 294.409L688.536 294.609L727.464 294.52L727.567 260.228L727.653 260.675C728.327 264.54 728.037 268.787 728.058 272.71C728.098 279.944 728.132 287.177 728.014 294.409C741.184 293.423 754.763 294.019 767.983 294.011C791.791 293.996 815.599 293.998 839.406 293.991C859.236 293.986 879.066 293.982 898.896 294.002C906.843 294.01 914.752 294.18 922.694 294.362C929.552 294.519 936.525 294.577 943.305 295.75C950.736 297.035 956.699 300.82 962.653 305.176C965.56 307.304 969.144 310.708 971.077 313.75L972.081 315.31L973.655 315.938C979.575 316.293 984.316 317.494 988.531 322L989.947 323.779C998.473 333.178 1002.05 348.477 1005.29 360.391L1024 514.653L1024 0L-0 -0L0 539.71Z"/>
	<path fill="#011D37" transform="scale(0.5 0.5)" d="M269.126 377.878C270.107 376.569 271.443 375.832 272.797 374.964C273.062 377.394 273.268 379.339 272.723 381.75C272.435 383.027 272.321 384.388 271.707 385.552C271.219 382.686 270.354 380.484 269.126 377.878Z"/>
	<path fill="#44DCD6" transform="scale(0.5 0.5)" d="M642.842 333.922C651.656 333.022 660.875 333.507 669.743 333.445C687.461 333.322 705.144 333.312 722.861 333.369C734.594 333.406 746.326 333.368 758.059 333.478C764.63 333.539 772.112 333.129 778.529 334.429L766.5 334.904C760.86 335.783 754.511 335.259 748.747 335.255C738.717 335.249 728.688 335.274 718.658 335.283C703.812 335.297 688.965 335.307 674.119 335.302C667.684 335.3 659.191 336.28 653 334.824C649.653 334.037 646.292 334.161 642.842 333.922Z"/>
	<path fill="#22577A" transform="scale(0.5 0.5)" d="M22.3966 369.43C25.2036 361.845 25.7295 352.701 27.5817 344.732C29.7985 335.195 32.5818 324.07 41.3526 318.611C47.1774 321.218 53.0764 320.196 59.1454 321.527L58.7223 321.683C54.1214 323.239 42.5777 321.235 40.0569 326.511C39.0844 328.546 40.2762 331.372 40.7787 333.413C41.6076 336.781 42.4511 342.289 40.745 345.25C40.4055 345.839 40.4975 345.95 40.4975 346.625L41 346.75L41.375 345.875L41.8203 345.125C41.943 347.863 42.1512 348.882 40.745 351.25L40.4975 351.875L39.2475 353.125C38.5361 353.903 38.745 353.616 38.745 354.75L37.625 354.875C37.5472 353.361 37.3789 351.975 37.75 350.5C38.0575 349.278 37.9335 349.569 37.625 348.375L37.5 345L37.9975 344.625L38.245 345.5L38.5 346C39.3313 345.169 39 342.973 39 341.75L38.5 341C38.6811 340.128 38.9937 339.428 39.375 338.625L39 337.75L39.375 336.875L38.625 334.875C39.0616 334.153 38.8309 334.427 39.25 334C38.7139 333.249 38.1633 332.64 37.5 332L36.625 332.375L36 331.25L36.5 330.5L36 329.25L36.5 328.5L36.75 327.5L37.5 327.25L37.875 326.375L38.5 325.5C38.1887 324.722 37.9575 324.511 38.1253 323.672C38.296 322.818 38.2511 323.158 38.245 322.25L37.745 323C35.3617 326.19 35.1605 326.764 35.25 330.755L35.745 331.5C35.7463 335.993 35.7476 340.487 35.7489 344.98C35.7493 346.469 35.4243 348.265 36.245 349.5C36.2463 353.473 36.2476 357.445 36.2489 361.418C36.2494 362.861 35.938 364.285 36.745 365.5C36.7496 366.662 36.7188 366.448 37.245 367.5L37.5 368.255L38.5 368.25L38.875 367.625L38.5 366.75L38.625 365.002L38.9975 365.002L40.4975 368.002C46.3411 369.343 53.0467 367.405 59 368.377L59.2549 368.806L59.0765 369.339L22.3966 369.43Z"/>
	<path fill="#000001" transform="scale(0.5 0.5)" d="M59.0765 369.339C75.4962 369.353 91.9159 369.36 108.336 369.353C112.885 369.351 117.435 369.362 121.984 369.362C124.888 369.361 127.903 369.582 130.75 368.951L131.1 372.721L130.416 374.966C127.276 376.198 121.033 375.349 117.572 375.356C103.119 375.387 88.6809 375.025 74.2277 375.056C56.7586 375.094 39.2832 375.321 21.8187 375.732C21.8758 373.581 22.0173 371.549 22.3966 369.43L59.0765 369.339Z"/>
	<defs>
		<linearGradient id="gradient_0" gradientUnits="userSpaceOnUse" x1="214.291" y1="381.27399" x2="214.91901" y2="361.68201">
			<stop offset="0" stop-color="#000726"/>
			<stop offset="1" stop-color="#002D69"/>
		</linearGradient>
	</defs>
	<path fill="url(#gradient_0)" transform="scale(0.5 0.5)" d="M161.466 380.532L160.988 380.723C159.483 381.083 159.304 380.783 158.09 379.955C157.48 378.871 156.986 377.773 157.052 376.5C157.256 372.534 160.246 369.367 163.225 367.065C165.815 365.063 169.035 363.519 172.281 363.002C177.86 362.114 184.018 362.555 189.675 362.531C200.09 362.486 210.506 362.477 220.921 362.422C228.262 362.383 235.602 362.26 242.942 362.161C247.204 362.104 251.646 361.787 255.879 362.322L256.75 362.446L259.036 362.834C265.397 364.494 269.806 369.43 272.797 374.964C271.443 375.832 270.107 376.569 269.126 377.878C266.319 373.69 263.662 371.006 258.5 369.991C251.997 368.712 243.484 370.057 236.776 370.265C228.574 370.52 220.349 370.489 212.144 370.442C203.831 370.395 195.526 370.212 187.216 369.963C182.941 369.834 178.372 369.315 174.119 369.614C171.354 369.809 168.712 370.657 166.444 372.272C163.46 374.399 162.238 377.066 161.466 380.532Z"/>
	<path fill="#C7F9CC" transform="scale(0.5 0.5)" d="M383.462 381.359C383.429 377.52 383.77 374.091 384.787 370.359C391.299 369.694 397.841 370.118 404.371 370.294C412.115 370.502 419.864 370.547 427.609 370.732C448.128 371.221 468.644 371.23 489.167 370.944C529.482 371.471 569.826 371.09 610.142 371.092C619.155 371.093 628.167 371.075 637.18 371.028C641.542 371.006 646.547 370.319 650.786 371.25C652.26 373.178 652.87 373.897 652.611 376.414L652.719 382.653L383.462 381.359Z"/>
	<path fill="#80ED99" transform="scale(0.5 0.5)" d="M652.611 376.414L653.023 382.898L652.249 398.538C657.249 398.432 660.981 397.221 665.75 399.396C665.75 400.35 665.697 400.46 665.259 401.25L665.349 402.977C664.898 404.569 664.639 404.758 663.215 405.581L662.977 405.695C658.448 407.135 653.626 407.647 648.919 408.149L607.31 407.968C607.307 412.228 607.675 416.848 607.076 421.055C606.357 416.993 606.836 412.177 606.827 408.024L598.429 408.306L579.48 408.113C579.877 414.233 579.865 420.333 579.826 426.461C579.806 429.72 580.069 433.315 579.564 436.513C578.238 429.507 579.927 421.636 579.196 414.497C579.085 413.408 579.361 411.621 578.988 410.712C578.719 410.057 578.491 409.268 577.833 408.96C576.058 408.131 574.091 408.246 572.25 408.723L571.977 421.974L571.926 422.579L571.709 408.49C545.558 408.521 519.401 408.604 493.25 408.41C483.808 408.339 474.367 408.109 464.924 408.022C463.376 408.008 459.489 407.517 458.25 407.963C457.934 408.077 457.682 408.321 457.398 408.5L457.32 412.371L456.839 411.732L456.75 408.451C454.586 408.366 452.379 408.661 450.219 408.834L450.205 423.928L449.597 424.341C449.3 422.758 449.534 420.705 449.525 419.051C449.505 415.482 449.486 411.912 449.467 408.343C443.286 408.235 436.598 408.59 430.502 407.72L430.024 407.645C427.787 407.067 422.955 406.831 420.941 407.98C418.391 408.684 413.318 408.022 410.544 407.971C399.748 407.77 388.955 407.525 378.166 407.062L368.421 405.725C367.69 404.726 367.046 403.76 365.998 403.059C364.282 401.913 363.014 400.566 361.57 399.098L376.747 399.029L383.49 398.936L383.462 381.359L652.719 382.653L652.611 376.414Z"/>
	<path fill="#22577A" transform="scale(0.5 0.5)" d="M652.249 398.538C657.249 398.432 660.981 397.221 665.75 399.396C665.75 400.35 665.697 400.46 665.259 401.25L665.349 402.977C664.898 404.569 664.639 404.758 663.215 405.581L662.977 405.695C658.448 407.135 653.626 407.647 648.919 408.149L607.31 407.968C607.307 412.228 607.675 416.848 607.076 421.055C606.357 416.993 606.836 412.177 606.827 408.024L598.429 408.306L579.48 408.113C579.877 414.233 579.865 420.333 579.826 426.461C579.806 429.72 580.069 433.315 579.564 436.513C578.238 429.507 579.927 421.636 579.196 414.497C579.085 413.408 579.361 411.621 578.988 410.712C578.719 410.057 578.491 409.268 577.833 408.96C576.058 408.131 574.091 408.246 572.25 408.723L571.977 421.974L571.926 422.579L571.709 408.49C545.558 408.521 519.401 408.604 493.25 408.41C483.808 408.339 474.367 408.109 464.924 408.022C463.376 408.008 459.489 407.517 458.25 407.963C457.934 408.077 457.682 408.321 457.398 408.5L457.32 412.371L456.839 411.732L456.75 408.451C454.586 408.366 452.379 408.661 450.219 408.834L450.205 423.928L449.597 424.341C449.3 422.758 449.534 420.705 449.525 419.051C449.505 415.482 449.486 411.912 449.467 408.343C443.286 408.235 436.598 408.59 430.502 407.72L430.024 407.645C427.787 407.067 422.955 406.831 420.941 407.98C418.391 408.684 413.318 408.022 410.544 407.971C399.748 407.77 388.955 407.525 378.166 407.062L368.421 405.725C367.69 404.726 367.046 403.76 365.998 403.059C364.282 401.913 363.014 400.566 361.57 399.098L376.747 399.029L383.49 398.936L596.769 398.922C602.708 397.991 609.314 398.503 615.351 398.506C627.651 398.513 639.948 398.644 652.249 398.538Z"/>
	<path fill="#38A3A5" transform="scale(0.5 0.5)" d="M652.249 398.538C657.249 398.432 660.981 397.221 665.75 399.396C665.75 400.35 665.697 400.46 665.259 401.25L665.349 402.977C664.898 404.569 664.639 404.758 663.215 405.581L662.977 405.695C662.479 404.184 661.552 402.419 660.42 401.296C658.006 398.898 655.032 399.088 651.89 399.083L596.769 398.922C602.708 397.991 609.314 398.503 615.351 398.506C627.651 398.513 639.948 398.644 652.249 398.538Z"/>
	<path fill="#A4FFFC" transform="scale(0.5 0.5)" d="M752.725 323.43L948.735 324.949L948.662 325.5L959.303 325.547C964.963 326.332 977.152 325.471 981.245 329.25C980.775 330.796 980.307 331.871 978.761 332.602C975.061 334.351 968.569 333.718 964.48 333.744C956.073 333.796 947.657 333.824 939.25 333.933C907.519 334.343 875.797 334.903 844.061 334.915C822.213 334.924 800.37 334.427 778.529 334.429C772.112 333.129 764.63 333.539 758.059 333.478C746.326 333.368 734.594 333.406 722.861 333.369C705.144 333.312 687.461 333.322 669.743 333.445C660.875 333.507 651.656 333.022 642.842 333.922C625.396 333.839 607.949 333.253 590.5 333.199C543.861 333.056 497.136 333.448 450.507 334.059C443.128 334.155 435.75 334.221 428.371 334.292C426.706 334.308 423.181 333.9 421.755 334.377C417.935 333.883 413.861 334.148 410 333.995C397.321 333.492 384.682 333.667 371.998 333.52C340.202 333.15 308.302 333.043 276.504 333.432C259.685 333.638 242.877 334.32 226.056 334.385C185.677 334.541 145.363 333.189 104.998 333.086C90.8436 333.05 76.2865 332.154 62.1732 333.051L61.0025 333.112C59.1746 332.918 57.0411 333.004 55.2746 332.556L54.5 332.311C53.1077 331.937 52.132 331.699 50.9338 330.84C49.8574 330.069 49.4791 329.265 49.245 328L49.9826 326.94C53.0953 325.279 60.2546 326.218 63.9117 326.192C75.7019 326.108 87.4752 326.223 99.2634 326.245C112.859 326.269 126.49 326.128 140.08 325.767C146.083 325.608 152.237 325.8 158.205 325.131L158.762 325.064L684.491 325.096C692.575 323.848 701.15 325.469 709.357 324.164C713.683 323.475 718.197 323.706 722.566 323.702C732.503 323.694 742.846 324.268 752.725 323.43Z"/>
	<path fill="#44DCD6" transform="scale(0.5 0.5)" d="M752.725 323.43L948.735 324.949L948.662 325.5L684.491 325.096C692.575 323.848 701.15 325.469 709.357 324.164C713.683 323.475 718.197 323.706 722.566 323.702C732.503 323.694 742.846 324.268 752.725 323.43Z"/>
	<path fill="#C7F9CC" transform="scale(0.5 0.5)" d="M161.466 380.532C162.238 377.066 163.46 374.399 166.444 372.272C168.712 370.657 171.354 369.809 174.119 369.614C178.372 369.315 182.941 369.834 187.216 369.963C195.526 370.212 203.831 370.395 212.144 370.442C220.349 370.489 228.574 370.52 236.776 370.265C243.484 370.057 251.997 368.712 258.5 369.991C263.662 371.006 266.319 373.69 269.126 377.878C270.354 380.484 271.219 382.686 271.707 385.552C271.092 388.222 271.547 391.682 271.603 394.452C271.727 400.535 271.866 406.619 271.877 412.703C271.93 442.087 271.971 471.474 271.958 500.858C271.951 516.186 272.856 532.165 271.485 547.427C271.242 550.135 270.523 554.643 268.79 556.772C254.244 558.453 238.918 557.489 224.251 557.489C203.919 557.489 183.527 557.946 163.203 557.457C161.741 542.101 162.973 526.067 162.919 510.619C162.81 479.319 162.55 448.028 162.546 416.725C162.546 408.827 162.543 400.93 162.533 393.033C162.529 389.679 163.158 384.501 161.89 381.439L161.466 380.532Z"/>
	<path fill="#C7F9CC" transform="scale(0.5 0.5)" d="M378.935 640.742C373.447 638.645 368.857 636.73 364.91 632.021C361.433 627.871 359.683 623.024 359.123 617.672C358.211 608.947 358.862 599.458 358.829 590.646C358.753 569.812 358.994 548.978 358.962 528.145C358.92 500.607 359.092 473.072 359.083 445.535C359.078 430.06 358.053 413.878 359.59 398.5L360.02 398.406C360.627 399.223 361.028 399.736 361.337 400.715C361.609 401.577 361.465 401.322 361.827 401.986C363.147 404.412 365.944 404.961 368.421 405.725L378.166 407.062C388.955 407.525 399.748 407.77 410.544 407.971C413.318 408.022 418.391 408.684 420.941 407.98C422.955 406.831 427.787 407.067 430.024 407.645L430.502 407.72C436.598 408.59 443.286 408.235 449.467 408.343C449.486 411.912 449.505 415.482 449.525 419.051C449.534 420.705 449.3 422.758 449.597 424.341C449.189 480.472 449.34 536.63 449.458 592.763C449.481 603.88 449.487 614.997 449.518 626.113C449.528 629.982 448.79 636.009 449.872 639.581C451.466 640.438 453.496 640.127 455.288 640.126L455.209 640.716L431.002 640.379L430.6 639.027L429.736 639.994L424.437 640.028L427.5 640.776C416.397 641.28 405.312 641.617 394.194 641.427C389.254 641.343 383.793 641.479 378.935 640.742Z"/>
	<path fill="#01355B" transform="scale(0.5 0.5)" d="M420.941 407.98C422.955 406.831 427.787 407.067 430.024 407.645L430.6 639.027L429.736 639.994L424.437 640.028C423.38 640.122 422.54 639.965 421.506 639.75C420.071 633.672 420.982 625.311 420.97 619.017C420.941 604.07 420.983 589.124 420.978 574.177C420.957 518.781 420.235 463.378 420.941 407.98Z"/>
	<path fill="#C7F9CC" transform="scale(0.5 0.5)" d="M430.024 407.645L430.502 407.72C436.598 408.59 443.286 408.235 449.467 408.343C449.486 411.912 449.505 415.482 449.525 419.051C449.534 420.705 449.3 422.758 449.597 424.341C449.189 480.472 449.34 536.63 449.458 592.763C449.481 603.88 449.487 614.997 449.518 626.113C449.528 629.982 448.79 636.009 449.872 639.581C451.466 640.438 453.496 640.127 455.288 640.126L455.209 640.716L431.002 640.379L430.6 639.027L430.024 407.645Z"/>
	<path fill="#C7F9CC" transform="scale(0.5 0.5)" d="M727.567 260.228L727.653 260.675C728.327 264.54 728.037 268.787 728.058 272.71C728.098 279.944 728.132 287.177 728.014 294.409C741.184 293.423 754.763 294.019 767.983 294.011C791.791 293.996 815.599 293.998 839.406 293.991C859.236 293.986 879.066 293.982 898.896 294.002C906.843 294.01 914.752 294.18 922.694 294.362C929.552 294.519 936.525 294.577 943.305 295.75C950.736 297.035 956.699 300.82 962.653 305.176C965.56 307.304 969.144 310.708 971.077 313.75L972.081 315.31L973.655 315.938C979.575 316.293 984.316 317.494 988.531 322L989.947 323.779C982.981 322.37 976.466 321.2 969.298 322.066C964.919 322.594 960.931 323.895 956.67 324.667C954.063 325.14 951.275 324.517 948.735 324.949L752.725 323.43C742.846 324.268 732.503 323.694 722.566 323.702C718.197 323.706 713.683 323.475 709.357 324.164C701.15 325.469 692.575 323.848 684.491 325.096L158.762 325.064C140.869 323.8 122.812 324.881 104.887 324.767C93.6008 324.695 82.3181 324.845 71.0318 324.776C64.7857 324.738 58.2468 324.171 52.047 324.669C49.9094 324.84 47.6385 325.252 45.935 326.647L45.245 327.25L45.3355 328.075C45.4498 329.236 45.4346 328.769 45.3595 329.906C44.5115 329.292 44.5729 328.253 44.3636 327.25C44.6212 326.799 44.7356 326.545 45.0453 326.164C46.572 324.289 49.9656 323.834 52.196 323.542C57.5079 322.848 63.3497 323.363 68.7274 323.417C76.18 323.492 83.6213 323.241 91.0725 323.243C97.1718 323.246 103.499 323.603 109.564 323.029L110.141 322.969C106.867 322.323 103.12 322.631 99.7768 322.609C93.1056 322.564 86.434 322.538 79.7629 322.481C72.8539 322.422 66.0357 321.738 59.1454 321.527C53.0764 320.196 47.1774 321.218 41.3526 318.611C44.0828 317.281 46.7301 316.782 49.713 316.354C50.787 316.081 51.8881 315.957 52.9838 315.796C53.4598 315.341 53.8995 314.903 54.2765 314.36C58.6471 308.06 66.6686 302.691 73.4874 299.295C79.3648 296.367 85.0434 295.237 91.5523 294.719C107.058 293.484 122.892 294.017 138.451 294.025C164.12 294.038 189.79 294.149 215.459 294.072C233.683 294.018 251.907 294 270.132 293.989C278.771 293.984 288.985 292.989 297.441 294.506C299.884 295.682 305.747 294.905 308.584 294.928C317.708 295.003 327.746 296.063 336.768 295.023L341.1 294.744C427.303 293.513 513.555 295.281 599.761 294.595C619.91 294.435 640.063 294.494 660.213 294.493C669.098 294.492 678.831 295.282 687.605 294.409L688.536 294.609L727.464 294.52L727.567 260.228Z"/>
	<defs>
		<linearGradient id="gradient_1" gradientUnits="userSpaceOnUse" x1="525.99402" y1="316.215" x2="526.01703" y2="324.20801">
			<stop offset="0" stop-color="#00826A"/>
			<stop offset="1" stop-color="#07A284"/>
		</linearGradient>
	</defs>
	<path fill="url(#gradient_1)" transform="scale(0.5 0.5)" d="M49.713 316.354L973.655 315.938C979.575 316.293 984.316 317.494 988.531 322L989.947 323.779C982.981 322.37 976.466 321.2 969.298 322.066C964.919 322.594 960.931 323.895 956.67 324.667C954.063 325.14 951.275 324.517 948.735 324.949L752.725 323.43C742.846 324.268 732.503 323.694 722.566 323.702C718.197 323.706 713.683 323.475 709.357 324.164C701.15 325.469 692.575 323.848 684.491 325.096L158.762 325.064C140.869 323.8 122.812 324.881 104.887 324.767C93.6008 324.695 82.3181 324.845 71.0318 324.776C64.7857 324.738 58.2468 324.171 52.047 324.669C49.9094 324.84 47.6385 325.252 45.935 326.647L45.245 327.25L45.3355 328.075C45.4498 329.236 45.4346 328.769 45.3595 329.906C44.5115 329.292 44.5729 328.253 44.3636 327.25C44.6212 326.799 44.7356 326.545 45.0453 326.164C46.572 324.289 49.9656 323.834 52.196 323.542C57.5079 322.848 63.3497 323.363 68.7274 323.417C76.18 323.492 83.6213 323.241 91.0725 323.243C97.1718 323.246 103.499 323.603 109.564 323.029L110.141 322.969C106.867 322.323 103.12 322.631 99.7768 322.609C93.1056 322.564 86.434 322.538 79.7629 322.481C72.8539 322.422 66.0357 321.738 59.1454 321.527C53.0764 320.196 47.1774 321.218 41.3526 318.611C44.0828 317.281 46.7301 316.782 49.713 316.354Z"/>
	<path fill="#57CC99" transform="scale(0.5 0.5)" d="M110.141 322.969C197.962 322.855 285.78 323.393 373.602 323.353C402.596 323.34 431.575 323.495 460.569 323.543C466.308 323.552 472.081 323.679 477.817 323.493C484.132 323.288 491.028 322.69 497.331 323.362C498.773 323.515 500.123 323.212 501.556 323.248C505.246 323.341 508.925 323.496 512.619 323.53C521.198 323.607 530.221 324.153 538.75 323.333C542.183 323.003 545.778 323.358 549.239 323.305C559.156 323.151 569.082 323.196 579 323.195C609.768 323.192 640.534 323.5 671.302 323.529C690.756 323.547 710.204 323.186 729.658 323.174C737.03 323.169 745.472 322.357 752.725 323.43C742.846 324.268 732.503 323.694 722.566 323.702C718.197 323.706 713.683 323.475 709.357 324.164C701.15 325.469 692.575 323.848 684.491 325.096L158.762 325.064C140.869 323.8 122.812 324.881 104.887 324.767C93.6008 324.695 82.3181 324.845 71.0318 324.776C64.7857 324.738 58.2468 324.171 52.047 324.669C49.9094 324.84 47.6385 325.252 45.935 326.647L45.245 327.25L45.3355 328.075C45.4498 329.236 45.4346 328.769 45.3595 329.906C44.5115 329.292 44.5729 328.253 44.3636 327.25C44.6212 326.799 44.7356 326.545 45.0453 326.164C46.572 324.289 49.9656 323.834 52.196 323.542C57.5079 322.848 63.3497 323.363 68.7274 323.417C76.18 323.492 83.6213 323.241 91.0725 323.243C97.1718 323.246 103.499 323.603 109.564 323.029L110.141 322.969Z"/>
	<path fill="#22577A" transform="scale(0.5 0.5)" d="M21.8187 375.732C39.2832 375.321 56.7586 375.094 74.2277 375.056C88.6809 375.025 103.119 375.387 117.572 375.356C121.033 375.349 127.276 376.198 130.416 374.966L131.1 372.721L130.627 607.071L10.2732 608.348L0 608.606L0 539.71C1.98091 534.762 1.922 528.638 2.39401 523.369C3.14867 514.945 3.90358 506.497 4.76664 498.083C6.38133 482.343 8.33668 466.6 10.212 450.886C13.2266 425.626 17.2474 400.735 21.8187 375.732Z"/>
	<path fill="#C7F9CC" transform="scale(0.5 0.5)" d="M457.32 412.371L457.398 408.5C457.682 408.321 457.934 408.077 458.25 407.963C459.489 407.517 463.376 408.008 464.924 408.022C474.367 408.109 483.808 408.339 493.25 408.41C519.401 408.604 545.558 408.521 571.709 408.49L571.926 422.579L571.977 421.974L572.25 408.723C574.091 408.246 576.058 408.131 577.833 408.96C578.491 409.268 578.719 410.057 578.988 410.712C579.361 411.621 579.085 413.408 579.196 414.497C579.927 421.636 578.238 429.507 579.564 436.513L579.606 640.66C577.815 639.943 573.91 640.314 571.981 640.569C570.309 641.471 567.429 640.999 565.495 640.986C559.645 640.948 553.796 640.936 547.946 640.961C517.847 641.09 487.683 641.63 457.591 640.822L457.457 640.248L455.288 640.126C453.496 640.127 451.466 640.438 449.872 639.581C448.79 636.009 449.528 629.982 449.518 626.113C449.487 614.997 449.481 603.88 449.458 592.763C449.34 536.63 449.189 480.472 449.597 424.341L450.205 423.928L450.219 408.834C452.379 408.661 454.586 408.366 456.75 408.451L456.839 411.732L457.32 412.371Z"/>
	<path fill="#011D37" transform="scale(0.5 0.5)" d="M571.926 422.579L571.977 421.974L572.25 408.723C574.091 408.246 576.058 408.131 577.833 408.96C578.491 409.268 578.719 410.057 578.988 410.712C579.361 411.621 579.085 413.408 579.196 414.497C579.927 421.636 578.238 429.507 579.564 436.513L579.606 640.66C577.815 639.943 573.91 640.314 571.981 640.569L571.926 422.579Z"/>
	<path fill="#011D37" transform="scale(0.5 0.5)" d="M449.597 424.341L450.205 423.928L450.219 408.834C452.379 408.661 454.586 408.366 456.75 408.451L456.839 411.732L457.32 412.371L457.457 640.248L455.288 640.126C453.496 640.127 451.466 640.438 449.872 639.581C448.79 636.009 449.528 629.982 449.518 626.113C449.487 614.997 449.481 603.88 449.458 592.763C449.34 536.63 449.189 480.472 449.597 424.341Z"/>
	<defs>
		<linearGradient id="gradient_2" gradientUnits="userSpaceOnUse" x1="1038.79" y1="529.87201" x2="645.35699" y2="476.237">
			<stop offset="0" stop-color="#7CF68F"/>
			<stop offset="1" stop-color="#22A0AA"/>
		</linearGradient>
	</defs>
	<path fill="url(#gradient_2)" transform="scale(0.5 0.5)" d="M958.99 363.098C961.494 361.639 966.906 361.756 969.836 361.571C981.632 360.826 993.476 360.569 1005.29 360.391L1024 514.653L1024 643.078C1005.41 643.991 986.638 643.538 968.026 643.524C939.977 643.505 911.929 643.575 883.88 643.57C841.328 643.561 798.778 643.459 756.226 643.459C725.234 643.459 694.041 643.803 663.073 642.85C658.386 642.706 653.587 642.534 648.923 642.025C648.004 641.925 647.639 641.488 646.817 641.204C645.597 640.784 643.294 640.967 641.97 640.919C638.831 640.513 634.964 640.996 631.766 641.057C623.738 641.209 615.815 641.499 607.773 641.355L607.455 640.881C604.911 640.547 602.695 640.422 600.117 640.698L600.908 641.189C597.308 641.756 582.403 642.186 579.606 640.66L579.564 436.513C580.069 433.315 579.806 429.72 579.826 426.461C579.865 420.333 579.877 414.233 579.48 408.113L598.429 408.306L606.827 408.024C606.836 412.177 606.357 416.993 607.076 421.055C607.675 416.848 607.307 412.228 607.31 407.968L648.919 408.149C653.626 407.647 658.448 407.135 662.977 405.695L663.215 405.581C664.639 404.758 664.898 404.569 665.349 402.977L665.259 401.25C665.697 400.46 665.75 400.35 665.75 399.396C660.981 397.221 657.249 398.432 652.249 398.538L653.023 382.898L660.539 386.337L658.048 384.049C660.1 381.356 662.125 378.906 665.75 378.554C666.475 378.483 666.555 378.534 667.173 378.652C668.605 377.832 669.922 377.302 671.393 376.643C671.689 376.511 672.02 376.235 672.28 376.034C687.27 376.98 702.471 375.664 717.506 376.057C721.621 376.164 725.732 376.282 729.848 376.329C731.302 376.346 731.395 377.224 732.6 376.633C733.734 376.075 734.573 376.194 735.778 376.308L735.312 376.903C738.26 377.623 741.309 377.318 744.117 378.036C745.619 378.42 748.155 378.557 749.726 378.633L751.173 378.365C752.734 378.181 753.791 378.541 755.285 377.846L755.885 378.748L756.435 378.511C757.296 378.209 757.781 378.324 758.647 378.485L759.858 377.845L760.503 378.196L761.285 377.846L761.896 378.805L763.279 378.84C763.84 379.699 764.311 380.326 764.97 381.093C765.684 381.924 765.779 382.851 766.059 383.874C766.292 384.724 766.754 385.262 767.078 386.043C767.895 388.014 767.426 389.824 767 391.75C766.346 394.706 767.234 398.649 767 401.75C766.263 411.495 766.72 421.56 766.725 431.358C766.728 436.124 766.124 441.84 766.885 446.5C767.493 450.226 766.662 454.869 766.737 458.753C767.074 476.146 766.978 493.592 766.976 511.016C766.975 515.232 766.97 519.448 766.968 523.664C766.967 525.196 766.687 527.203 767.255 528.625C768.106 530.751 767.149 533.998 767.75 536.5L767.867 537.125C768.056 538.068 768.42 538.929 768.609 539.875C768.846 541.059 769.469 541.731 769.615 542.997C770.219 543.699 770.328 544.174 771.274 544.315C770.037 541.541 768.904 538.823 768.489 535.785C767.791 530.667 767.984 525.469 767.97 520.314C767.949 512.667 767.938 505.019 767.928 497.371C767.897 473.085 767.525 448.782 767.629 424.5C767.689 410.527 768.855 395.975 767.909 382.07L766.279 379.776C764.826 377.525 765.068 376.528 765.607 374.052C766.905 371.785 768.456 370.077 770.33 368.277C778.734 360.203 793.684 362.409 804.489 362.56L909.861 361.923C920.573 361.066 931.69 361.597 942.443 361.81C947.517 361.911 954.262 361.311 958.99 363.098Z"/>
	<path fill="#57CC99" transform="scale(0.5 0.5)" d="M653.023 382.898L660.539 386.337C663.667 388.706 665.909 390.095 666.505 394.219C666.903 396.974 666.649 400.029 666.552 402.808L665.349 402.977L665.259 401.25C665.697 400.46 665.75 400.35 665.75 399.396C660.981 397.221 657.249 398.432 652.249 398.538L653.023 382.898Z"/>
	<path fill="#C7F9CC" transform="scale(0.5 0.5)" d="M665.349 402.977L666.552 402.808C666.976 452.616 666.469 502.454 666.509 552.265C666.521 567.607 666.501 582.949 666.583 598.29C666.621 605.434 667.494 612.911 666.622 619.994C666.033 624.768 664.319 629.268 660.862 632.718C655.501 638.067 649.438 640.465 641.97 640.919C638.831 640.513 634.964 640.996 631.766 641.057C623.738 641.209 615.815 641.499 607.773 641.355L607.455 640.881C604.911 640.547 602.695 640.422 600.117 640.698L600.908 641.189C597.308 641.756 582.403 642.186 579.606 640.66L579.564 436.513C580.069 433.315 579.806 429.72 579.826 426.461C579.865 420.333 579.877 414.233 579.48 408.113L598.429 408.306L606.827 408.024C606.836 412.177 606.357 416.993 607.076 421.055C607.675 416.848 607.307 412.228 607.31 407.968L648.919 408.149C653.626 407.647 658.448 407.135 662.977 405.695L663.215 405.581C664.639 404.758 664.898 404.569 665.349 402.977Z"/>
	<path fill="#C7F9CC" transform="scale(0.5 0.5)" d="M598.429 408.306L606.827 408.024C606.836 412.177 606.357 416.993 607.076 421.055L607.455 640.881C604.911 640.547 602.695 640.422 600.117 640.698L600.908 641.189C597.308 641.756 582.403 642.186 579.606 640.66L579.564 436.513C580.069 433.315 579.806 429.72 579.826 426.461C579.865 420.333 579.877 414.233 579.48 408.113L598.429 408.306Z"/>
	<path fill="#011D37" transform="scale(0.5 0.5)" d="M598.429 408.306L606.827 408.024C606.836 412.177 606.357 416.993 607.076 421.055L607.455 640.881C604.911 640.547 602.695 640.422 600.117 640.698C599.363 640.472 599.138 640.256 598.559 639.75L598.429 408.306Z"/>
	<path fill="#C7F9CC" transform="scale(0.5 0.5)" d="M909.861 361.923C920.573 361.066 931.69 361.597 942.443 361.81C947.517 361.911 954.262 361.311 958.99 363.098C963.435 365.692 967.213 370.503 968.576 375.472C969.139 377.527 969.145 380.066 968.107 381.989L967.736 382.475L967.654 383.143C967.444 385.196 968.063 387.687 968.378 389.725C969.182 394.927 970.329 400.077 971.165 405.277C976.178 436.451 981.236 467.533 985.825 498.78C986.847 505.735 987.942 512.678 988.969 519.631C989.697 524.557 990.646 529.503 990.226 534.507C989.739 540.315 987.463 545.912 982.911 549.718C979.7 552.404 976.387 553.522 972.283 553.921C968.356 554.303 964.166 554.031 960.217 554.033C952.58 554.038 944.943 554.027 937.306 554.023C912.809 554.011 888.311 554.013 863.813 554.024C845.768 554.033 827.723 554.036 809.677 554.062C801.455 554.074 792.03 555.017 783.924 553.904C778.435 553.149 774.483 548.394 771.274 544.315C770.037 541.541 768.904 538.823 768.489 535.785C767.791 530.667 767.984 525.469 767.97 520.314C767.949 512.667 767.938 505.019 767.928 497.371C767.897 473.085 767.525 448.782 767.629 424.5C767.689 410.527 768.855 395.975 767.909 382.07L766.279 379.776C764.826 377.525 765.068 376.528 765.607 374.052C766.905 371.785 768.456 370.077 770.33 368.277C778.734 360.203 793.684 362.409 804.489 362.56L909.861 361.923Z"/>
	<defs>
		<linearGradient id="gradient_3" gradientUnits="userSpaceOnUse" x1="866.72998" y1="381.492" x2="866.83099" y2="361.15201">
			<stop offset="0" stop-color="#000A27"/>
			<stop offset="1" stop-color="#04366D"/>
		</linearGradient>
	</defs>
	<path fill="url(#gradient_3)" transform="scale(0.5 0.5)" d="M909.861 361.923C920.573 361.066 931.69 361.597 942.443 361.81C947.517 361.911 954.262 361.311 958.99 363.098C963.435 365.692 967.213 370.503 968.576 375.472C969.139 377.527 969.145 380.066 968.107 381.989L967.736 382.475C967.58 381.272 967.294 380.238 966.791 379.138C965.177 375.613 961.881 371.802 958.103 370.596C952.99 368.962 945.551 369.927 940.166 370.087C932.215 370.324 924.267 370.489 916.312 370.513C884.299 370.61 852.28 370.526 820.267 370.435C807.753 370.4 794.929 369.297 782.476 369.727C779.843 369.818 777.444 370.339 775.129 371.632C771.195 373.829 769.013 377.853 767.909 382.07L766.279 379.776C764.826 377.525 765.068 376.528 765.607 374.052C766.905 371.785 768.456 370.077 770.33 368.277C778.734 360.203 793.684 362.409 804.489 362.56L909.861 361.923Z"/>
	<path fill="#C7F9CC" transform="scale(0.5 0.5)" d="M302.079 193.106C306.486 187.055 315.108 175.251 322.826 174.176C326.555 173.657 330.77 174.007 334.535 174.066C341.736 174.178 348.939 174.406 356.141 174.406C381.269 174.404 406.415 174.058 431.545 173.858C495.675 173.346 559.735 173.627 623.86 174.067C641.305 174.186 658.753 174.077 676.198 173.981C684.261 173.937 692.817 173.258 700.824 173.92C704.187 174.198 707.051 176.001 709.626 178.068C714.696 182.138 719.442 187.984 722.953 193.435C712.631 193.991 702.343 193.804 692.014 193.903C667.215 194.14 642.439 193.85 617.644 193.886C580.466 193.939 543.294 194.915 506.121 194.943C477.379 194.965 448.664 194.078 419.937 194.011C389.331 193.941 358.762 194.459 328.163 193.97C323.524 193.896 318.872 193.613 314.237 193.6C310.268 193.589 305.955 193.996 302.079 193.106Z"/>
	<path fill="#57CC99" transform="scale(0.5 0.5)" d="M302.079 193.106C305.955 193.996 310.268 193.589 314.237 193.6C318.872 193.613 323.524 193.896 328.163 193.97C358.762 194.459 389.331 193.941 419.937 194.011C448.664 194.078 477.379 194.965 506.121 194.943C543.294 194.915 580.466 193.939 617.644 193.886C642.439 193.85 667.215 194.14 692.014 193.903C702.343 193.804 712.631 193.991 722.953 193.435C723.91 194.962 724.941 196.506 725.452 198.25C727.661 205.794 727.431 214.593 727.47 222.412C727.533 234.942 726.956 247.733 727.567 260.228L727.464 294.52L688.536 294.609L687.605 294.409L687.417 251.77C687.377 245.764 687.311 239.755 687.166 233.75C687.117 231.72 687.413 228.763 686.922 226.875C686.708 226.053 684.96 224.245 684.321 223.655C681.301 220.86 677.946 219.679 673.909 219.389C668.279 218.984 662.517 219.351 656.874 219.395C647.099 219.471 637.323 219.477 627.547 219.474C593.397 219.464 559.247 219.474 525.096 219.466C485.569 219.457 446.044 219.377 406.517 219.458C394.798 219.483 383.079 219.524 371.36 219.517C364.787 219.513 358.033 219.205 351.477 219.605C347.597 219.842 342.128 222.108 339.913 225.498C339.41 226.267 339.315 226.887 339.272 227.777C338.707 239.48 340.014 251.811 340.322 263.567C340.593 273.912 339.941 284.458 341.1 294.744L336.768 295.023C327.746 296.063 317.708 295.003 308.584 294.928C305.747 294.905 299.884 295.682 297.441 294.506C297.033 276.393 297.193 258.243 297.192 240.125C297.192 227.285 296.148 212.627 298.651 200.047C299.217 197.201 300.37 195.399 302.079 193.106Z"/>
	<path fill="#000001" transform="scale(0.5 0.5)" d="M336.768 295.023C337.372 278.115 336.641 260.991 336.516 244.068C336.47 237.868 335.709 230.591 336.669 224.5C336.893 223.084 337.431 221.804 338.375 220.716C341.824 216.742 348.043 214.171 353.25 214.018C377.858 213.297 402.648 213.93 427.275 213.943C472.785 213.967 518.294 213.935 563.804 214.001C588.329 214.037 612.862 214.045 637.388 213.938C648.978 213.887 661.257 212.736 672.733 213.927C677.298 214.401 681.635 216.494 684.951 219.676C686.479 221.143 687.978 223.122 688.375 225.25C688.853 227.81 688.559 230.762 688.535 233.371C688.492 238.243 688.443 243.115 688.41 247.987C688.303 263.526 688.45 279.07 688.536 294.609L687.605 294.409L687.417 251.77C687.377 245.764 687.311 239.755 687.166 233.75C687.117 231.72 687.413 228.763 686.922 226.875C686.708 226.053 684.96 224.245 684.321 223.655C681.301 220.86 677.946 219.679 673.909 219.389C668.279 218.984 662.517 219.351 656.874 219.395C647.099 219.471 637.323 219.477 627.547 219.474C593.397 219.464 559.247 219.474 525.096 219.466C485.569 219.457 446.044 219.377 406.517 219.458C394.798 219.483 383.079 219.524 371.36 219.517C364.787 219.513 358.033 219.205 351.477 219.605C347.597 219.842 342.128 222.108 339.913 225.498C339.41 226.267 339.315 226.887 339.272 227.777C338.707 239.48 340.014 251.811 340.322 263.567C340.593 273.912 339.941 284.458 341.1 294.744L336.768 295.023Z"/>
	<path fill="#22577A" transform="scale(0.5 0.5)" d="M341.1 294.744C339.941 284.458 340.593 273.912 340.322 263.567C340.014 251.811 338.707 239.48 339.272 227.777C339.315 226.887 339.41 226.267 339.913 225.498C342.128 222.108 347.597 219.842 351.477 219.605C358.033 219.205 364.787 219.513 371.36 219.517C383.079 219.524 394.798 219.483 406.517 219.458C446.044 219.377 485.569 219.457 525.096 219.466C559.247 219.474 593.397 219.464 627.547 219.474C637.323 219.477 647.099 219.471 656.874 219.395C662.517 219.351 668.279 218.984 673.909 219.389C677.946 219.679 681.301 220.86 684.321 223.655C684.96 224.245 686.708 226.053 686.922 226.875C687.413 228.763 687.117 231.72 687.166 233.75C687.311 239.755 687.377 245.764 687.417 251.77L687.605 294.409C678.831 295.282 669.098 294.492 660.213 294.493C640.063 294.494 619.91 294.435 599.761 294.595C513.555 295.281 427.303 293.513 341.1 294.744Z"/>
	<path fill="#18E167" transform="scale(0.5 0.5)" d="M982.596 770.897L1018.91 769.46C1017.09 773.865 1014.79 777.509 1010.13 779.385C1002.88 782.302 991.937 782.408 984.336 780.774C983.285 777.958 983.098 773.906 982.596 770.897Z"/>
	<path fill="#011D37" transform="scale(0.5 0.5)" d="M296.772 780.362C297.633 780.953 298.747 781.883 299.752 782.165C301.658 782.699 305.137 782.213 307.21 782.187C315.257 782.088 323.774 781.431 331.767 782.307L331.25 786.14C329.33 788.187 326.083 789.114 323.615 790.453C316.526 794.3 309.697 798.3 302.5 801.985C299.966 803.282 297.696 805.36 294.989 806.249C291.305 807.459 287.353 806.919 283.97 805.118C278.182 802.037 273.929 787.861 272.161 781.622C278.225 781.866 284.311 781.794 290.375 781.603C292.778 781.527 294.89 781.943 296.772 780.362Z"/>
	<path fill="#22577A" transform="scale(0.5 0.5)" d="M961.426 815.121C963.799 815.216 965.945 815.454 968.223 816.168C980.082 819.884 991.864 827.671 1002.72 833.737C1007.84 836.595 1018.68 841.08 1021.1 846.451C1022.16 848.794 1021.66 852.331 1020.6 854.631C1019.09 857.93 1016.01 859.315 1012.78 860.398C1011.27 860.539 1009.97 860.15 1008.59 859.587C1000.79 856.415 993.055 851.403 985.659 847.32C976.726 842.389 967.122 837.679 958.672 831.959C956.256 830.323 953.538 828.557 953.105 825.423C952.809 823.278 953.589 820.647 954.864 818.914C956.61 816.539 958.589 815.62 961.426 815.121Z"/>
	<path fill="#22577A" transform="scale(0.5 0.5)" d="M62.1789 814.599C63.6246 814.503 65.1348 814.691 66.399 815.429C68.5793 816.702 71.1567 821.185 71.5318 823.61C71.7804 825.217 71.7121 827.064 70.7507 828.399C69.0368 830.78 65.6183 832.376 63.1337 833.874C55.8259 838.279 48.2521 842.213 40.8159 846.397C33.458 850.537 25.676 855.781 17.9385 859.036C16.3117 859.72 14.5094 859.926 12.7727 860.149C11.309 859.775 9.81039 859.387 8.42961 858.763C5.77906 857.565 3.57901 854.755 2.76342 851.982C2.19858 850.061 2.19348 847.592 3.23807 845.832C6.22487 840.801 14.6549 837.775 19.6705 834.978C31.0223 828.648 42.2035 822.063 54.2202 817.023C56.8191 815.932 59.4433 815.243 62.1789 814.599Z"/>
	<path fill="#01355B" transform="scale(0.5 0.5)" d="M914.604 782.964C920.985 783.445 928.579 782.326 935.039 782.037C935.175 798.388 932.787 816.466 923.459 830.299L922.98 831L922.501 831.719C911.401 848.16 893.758 859.171 874.5 863.149C869.491 864.184 864.26 864.526 859.155 864.114C841.254 862.67 821.766 851.606 810.407 837.896C797.247 822.014 790.553 802.705 791.034 782.074C797.061 783.539 803.73 782.155 809.793 783.289L811.568 783.01L811.952 783.514L812.313 786.371C813.181 799.502 816.699 809.997 824.271 820.815C825.025 821.13 826.033 822.578 826.631 823.234C835.592 833.065 848.616 841.026 862.171 841.55C875.854 842.078 887.039 837.4 896.943 828.031C910.724 814.992 913.412 801.326 914.013 783.051L914.604 782.964Z"/>
	<path fill="#011D37" transform="scale(0.5 0.5)" d="M811.568 783.01L811.952 783.514L812.313 786.371C813.181 799.502 816.699 809.997 824.271 820.815L823.757 821.233L823.213 820.839C822.011 819.903 821.19 818.383 820.353 817.135C815.695 810.191 812.584 802.504 810.995 794.276C810.306 790.708 810.366 786.923 809.793 783.289L811.568 783.01Z"/>
	<path fill="#01355B" transform="scale(0.5 0.5)" d="M92.5041 781.927C98.814 781.94 106.251 781.218 112.401 782.358L113.057 782.62C113.367 783.473 113.52 783.5 113.276 784.404C112.795 786.177 113.125 788.553 113.222 790.379C113.712 799.651 115.843 808.79 120.787 816.754C127.789 828.035 139.711 836.908 152.689 839.922C165.132 842.81 178.071 840.895 188.904 834.076C194.464 830.576 199.689 825.901 203.385 820.455C208.64 812.712 212.322 804.719 213.674 795.408C214.223 791.626 214.269 787.311 213.826 783.515C215.25 782.681 217.767 783.017 219.427 782.972C224.578 782.833 230.471 783.19 235.482 782.054L235.511 785.449C235.611 807.618 227.748 827.006 212.123 842.745C199.479 855.483 181.476 864.253 163.275 864.191C144.755 864.128 126.001 854.888 113.114 841.872C96.3064 824.897 92.2696 805.046 92.5041 781.927Z"/>
	<path fill="#22577A" transform="scale(0.5 0.5)" d="M857.182 747.94L857.574 747.298C860.481 747.288 868.899 746.354 871 747.755L871.457 747.757C872.632 747.772 873.166 747.876 874.25 748.255C875.134 748.564 876.093 748.74 876.997 749.051C878.198 749.465 880.558 750.622 881.726 750.646C883.375 750.679 883.151 749.448 885 750.245L886.474 750.598C887.307 750.808 886.828 750.696 887.843 751.155C889.609 751.955 891.135 751.804 893 752.745C893.325 752.909 893.655 752.929 894.003 752.997L894.62 753.13C895.737 753.352 894.775 753.172 895.795 753.269C896.557 753.341 897.074 753.688 897.726 754.053L898.412 753.708C900.171 754.675 903.347 757.002 905.317 756.847C907.525 759.132 908.83 762.061 910.121 764.925C912.213 770.845 914.271 776.623 914.604 782.964L914.013 783.051C913.412 801.326 910.724 814.992 896.943 828.031C887.039 837.4 875.854 842.078 862.171 841.55C848.616 841.026 835.592 833.065 826.631 823.234C826.033 822.578 825.025 821.13 824.271 820.815C816.699 809.997 813.181 799.502 812.313 786.371L811.952 783.514L812.627 783.478C813.686 783.084 814.249 782.836 815.398 782.917L816.25 783C818.36 782.956 821.657 783.07 823.625 782.503L824 781.75L824.002 781.003C824.392 780.481 824.573 780.128 824.75 779.5C824.94 778.825 825.027 778.439 825.356 777.783C826.971 774.556 828.251 771.233 830.271 768.203L830.755 767.5L832.875 764.753L834.003 763.503C834.76 762.186 836.597 759.731 838.003 759.003C839.103 758.432 839.559 757.52 840.503 757.003C841.31 756.56 841.961 756.404 842.503 755.503C843.159 754.41 843.542 753.918 844.503 753.003L844.75 752C846.16 749.564 854.469 748.323 857.182 747.94Z"/>
	<path fill="#000001" transform="scale(0.5 0.5)" d="M844.007 756.297C853.744 751.129 866.508 749.706 877.117 752.948C881.952 754.425 885.485 756.88 889.531 759.785C891.776 762.207 894.417 764.773 895.862 767.777L894.955 767.541C891.205 762.81 886.242 758.589 880.75 756.008C870.791 751.326 856.465 752.585 846.428 756.484C845.417 756.877 845.034 756.562 844.007 756.297Z"/>
	<path fill="#90979E" transform="scale(0.5 0.5)" d="M857.182 747.94L858.051 747.998C866.183 748.509 871.756 747.651 879.24 751.674C880.375 752.284 882.037 752.833 882.976 753.64L883.5 754.255L884.854 755.146C886.897 756.503 888.536 757.498 889.531 759.785C885.485 756.88 881.952 754.425 877.117 752.948C866.508 749.706 853.744 751.129 844.007 756.297C835.234 760.491 828.497 771.797 825.337 780.615L824.248 784.057L812.627 783.478C813.686 783.084 814.249 782.836 815.398 782.917L816.25 783C818.36 782.956 821.657 783.07 823.625 782.503L824 781.75L824.002 781.003C824.392 780.481 824.573 780.128 824.75 779.5C824.94 778.825 825.027 778.439 825.356 777.783C826.971 774.556 828.251 771.233 830.271 768.203L830.755 767.5L832.875 764.753L834.003 763.503C834.76 762.186 836.597 759.731 838.003 759.003C839.103 758.432 839.559 757.52 840.503 757.003C841.31 756.56 841.961 756.404 842.503 755.503C843.159 754.41 843.542 753.918 844.503 753.003L844.75 752C846.16 749.564 854.469 748.323 857.182 747.94Z"/>
	<path fill="#FFCC01" transform="scale(0.5 0.5)" d="M863.284 781.042C865.544 780.811 868.061 780.725 870.066 781.957C873.304 783.947 874.616 787.186 875.597 790.675C875.144 793.201 874.805 795.609 873.454 797.849C871.568 800.976 869.154 802.121 865.721 802.977C864.226 802.977 862.781 802.953 861.343 802.495C858.066 801.451 855.201 798.76 853.875 795.593C852.886 793.232 853.425 789.966 854.528 787.711C856.397 783.889 859.422 782.358 863.284 781.042Z"/>
	<path fill="#9FA8AB" transform="scale(0.5 0.5)" d="M857.182 747.94L857.574 747.298C860.481 747.288 868.899 746.354 871 747.755L871.457 747.757C872.632 747.772 873.166 747.876 874.25 748.255C875.134 748.564 876.093 748.74 876.997 749.051C878.198 749.465 880.558 750.622 881.726 750.646C883.375 750.679 883.151 749.448 885 750.245L886.474 750.598C887.307 750.808 886.828 750.696 887.843 751.155C889.609 751.955 891.135 751.804 893 752.745C893.325 752.909 893.655 752.929 894.003 752.997L894.62 753.13C895.737 753.352 894.775 753.172 895.795 753.269C896.557 753.341 897.074 753.688 897.726 754.053L898.412 753.708C900.171 754.675 903.347 757.002 905.317 756.847C907.525 759.132 908.83 762.061 910.121 764.925C912.213 770.845 914.271 776.623 914.604 782.964L914.013 783.051C910.241 783.301 906.341 783.693 902.56 783.463C901.099 778.405 899.502 771.784 895.862 767.777C894.417 764.773 891.776 762.207 889.531 759.785C888.536 757.498 886.897 756.503 884.854 755.146L883.5 754.255L882.976 753.64C882.037 752.833 880.375 752.284 879.24 751.674C871.756 747.651 866.183 748.509 858.051 747.998L857.182 747.94Z"/>
	<path fill="#22577A" transform="scale(0.5 0.5)" d="M772.893 731.755C779.838 726.428 790.626 721.966 799.23 720.403C804.243 719.492 809.907 719.718 814.996 719.636C828.733 719.417 842.447 719.929 856.183 719.938C873.489 719.95 890.802 719.565 908.105 719.847C915.154 719.962 922.451 719.629 929.431 720.587L933.035 721.338C940.935 723.377 948.821 727.587 955.454 732.292L955.569 732.57C968.572 740.265 976.916 757.442 982.596 770.897C983.098 773.906 983.285 777.958 984.336 780.774C984.975 789.259 983.3 798.658 981.046 806.823C980.445 808.999 979.776 812.1 978.345 813.845C977.698 814.633 976.984 814.993 975.98 814.98C972.365 814.931 969.705 814.306 966.314 812.966C966.72 802.351 969.387 792.056 971.844 781.762L935.039 782.037C928.579 782.326 920.985 783.445 914.604 782.964C914.271 776.623 912.213 770.845 910.121 764.925C908.83 762.061 907.525 759.132 905.317 756.847C903.347 757.002 900.171 754.675 898.412 753.708L897.726 754.053C897.074 753.688 896.557 753.341 895.795 753.269C894.775 753.172 895.737 753.352 894.62 753.13L894.003 752.997C893.655 752.929 893.325 752.909 893 752.745C891.135 751.804 889.609 751.955 887.843 751.155C886.828 750.696 887.307 750.808 886.474 750.598L885 750.245C883.151 749.448 883.375 750.679 881.726 750.646C880.558 750.622 878.198 749.465 876.997 749.051C876.093 748.74 875.134 748.564 874.25 748.255C873.166 747.876 872.632 747.772 871.457 747.757L871 747.755C868.899 746.354 860.481 747.288 857.574 747.298L857.182 747.94C854.469 748.323 846.16 749.564 844.75 752L844.503 753.003C843.542 753.918 843.159 754.41 842.503 755.503C841.961 756.404 841.31 756.56 840.503 757.003C839.559 757.52 839.103 758.432 838.003 759.003C836.597 759.731 834.76 762.186 834.003 763.503L832.875 764.753L830.755 767.5L830.271 768.203C828.251 771.233 826.971 774.556 825.356 777.783C825.027 778.439 824.94 778.825 824.75 779.5C824.573 780.128 824.392 780.481 824.002 781.003L824 781.75L823.625 782.503C821.657 783.07 818.36 782.956 816.25 783L815.398 782.917C814.249 782.836 813.686 783.084 812.627 783.478L811.952 783.514L811.568 783.01L809.793 783.289C803.73 782.155 797.061 783.539 791.034 782.074C788.947 780.43 757.436 781.922 752.377 781.64C750.705 788.953 747.71 800.332 741.137 804.6C738.221 806.493 734.202 807.128 730.834 806.235C727.101 805.245 723.575 802.335 720.153 800.546C717.396 799.104 714.442 798.076 711.703 796.594C708.637 794.935 705.8 792.846 702.75 791.141C700.311 789.777 695.725 788.041 694.57 785.5L693.618 782.32C701.678 780.999 712.084 781.649 720.25 782.476C722.32 782.686 726.046 783.296 727.625 782.03C731.178 779.179 733.868 774.599 736.658 770.93C740.589 765.778 744.919 760.857 749.041 755.852C756.277 747.065 763.296 738.092 772.893 731.755Z"/>
	<path fill="#011D37" transform="scale(0.5 0.5)" d="M772.893 731.755C772.08 733.931 769.108 735.828 767.432 737.427C758.363 746.079 751.114 756.776 743.084 766.383C738.827 771.001 733.766 775.457 730.873 781.066C732.208 781.659 734.354 781.39 735.837 781.396C740.998 781.415 747.353 780.729 752.377 781.64C750.705 788.953 747.71 800.332 741.137 804.6C738.221 806.493 734.202 807.128 730.834 806.235C727.101 805.245 723.575 802.335 720.153 800.546C717.396 799.104 714.442 798.076 711.703 796.594C708.637 794.935 705.8 792.846 702.75 791.141C700.311 789.777 695.725 788.041 694.57 785.5L693.618 782.32C701.678 780.999 712.084 781.649 720.25 782.476C722.32 782.686 726.046 783.296 727.625 782.03C731.178 779.179 733.868 774.599 736.658 770.93C740.589 765.778 744.919 760.857 749.041 755.852C756.277 747.065 763.296 738.092 772.893 731.755Z"/>
	<path fill="#A6A8AE" transform="scale(0.5 0.5)" d="M847.992 739.803L851.786 738.798C864.114 735.354 879.094 737.992 890.077 744.254C895.625 747.417 901.425 751.728 905.317 756.847C903.347 757.002 900.171 754.675 898.412 753.708L897.726 754.053C897.074 753.688 896.557 753.341 895.795 753.269C894.775 753.172 895.737 753.352 894.62 753.13L894.003 752.997C893.655 752.929 893.325 752.909 893 752.745C891.135 751.804 889.609 751.955 887.843 751.155C886.828 750.696 887.307 750.808 886.474 750.598L885 750.245C883.151 749.448 883.375 750.679 881.726 750.646C880.558 750.622 878.198 749.465 876.997 749.051C876.093 748.74 875.134 748.564 874.25 748.255C873.166 747.876 872.632 747.772 871.457 747.757L871 747.755C868.899 746.354 860.481 747.288 857.574 747.298L857.182 747.94C854.469 748.323 846.16 749.564 844.75 752L844.503 753.003C843.542 753.918 843.159 754.41 842.503 755.503C841.961 756.404 841.31 756.56 840.503 757.003C839.559 757.52 839.103 758.432 838.003 759.003C836.597 759.731 834.76 762.186 834.003 763.503L832.875 764.753L830.755 767.5L830.271 768.203C828.251 771.233 826.971 774.556 825.356 777.783C825.027 778.439 824.94 778.825 824.75 779.5C824.573 780.128 824.392 780.481 824.002 781.003L824 781.75L823.625 782.503C821.657 783.07 818.36 782.956 816.25 783L815.398 782.917C814.249 782.836 813.686 783.084 812.627 783.478L811.952 783.514L811.568 783.01C812.445 780.738 812.516 777.664 813.006 775.227C814.062 769.977 816.28 765.285 818.767 760.577C822.803 754.881 827.771 749.647 833.886 746.157C838.469 743.542 842.891 741.28 847.992 739.803Z"/>
	<path fill="#C7F9CC" transform="scale(0.5 0.5)" d="M847.992 739.803L851.786 738.798C864.114 735.354 879.094 737.992 890.077 744.254C895.625 747.417 901.425 751.728 905.317 756.847C903.347 757.002 900.171 754.675 898.412 753.708L898.4 753.611C887.395 746.357 873.287 742.492 860.25 741.668L860.003 741.125L861.5 741C863.259 739.827 865.402 741.095 867.25 740.5C868.546 740.083 869.731 739.708 871.125 740.172C872.172 740.521 872.686 740.604 873.755 740.25C872.729 739.932 872.076 739.729 871.19 739.082L870.599 738.608C869.156 738.585 867.862 738.107 866.517 738.105C864.682 738.101 862.439 737.756 860.664 738.182C859.012 738.578 857.387 738.339 855.77 738.658C854.471 738.915 852.997 739.158 851.727 739.535C850.662 739.851 850.084 740.052 848.969 739.927L847.992 739.803Z"/>
	<path fill="#22577A" transform="scale(0.5 0.5)" d="M74.9316 730.09C76.8449 728.086 80.5241 726.592 83.0893 725.527C87.9755 723.498 93.5976 721.319 98.8176 720.415C102.134 719.841 105.67 719.956 109.035 719.879C133.313 719.323 157.609 720.008 181.893 719.903C192.765 719.856 203.641 719.739 214.512 719.814C219.763 719.85 225.686 719.441 230.815 720.54C235.364 721.515 239.431 723.859 243.479 726.059C248.868 728.989 254.196 731.98 258.649 736.255L287.125 769.238L296.772 780.362C294.89 781.943 292.778 781.527 290.375 781.603C284.311 781.794 278.225 781.866 272.161 781.622L235.482 782.054C230.471 783.19 224.578 782.833 219.427 782.972C217.767 783.017 215.25 782.681 213.826 783.515C214.269 787.311 214.223 791.626 213.674 795.408C212.322 804.719 208.64 812.712 203.385 820.455C199.689 825.901 194.464 830.576 188.904 834.076C178.071 840.895 165.132 842.81 152.689 839.922C139.711 836.908 127.789 828.035 120.787 816.754C115.843 808.79 113.712 799.651 113.222 790.379C113.125 788.553 112.795 786.177 113.276 784.404C113.52 783.5 113.367 783.473 113.057 782.62L112.401 782.358C106.251 781.218 98.814 781.94 92.5041 781.927L55.0633 782.024C57.9017 791.562 60.9742 801.17 61.7991 811.131C58.6927 813.041 54.6793 814.678 51.0272 814.909C50.0325 814.971 49.5914 814.943 48.8888 814.088C47.6933 812.633 47.006 809.758 46.4504 807.957C43.7063 799.062 42.3921 789.736 42.1403 780.456L43.7636 770.368L44.4829 767.75C49.5503 751.986 60.0845 737.888 74.9316 730.09Z"/>
	<path fill="#FFCC01" transform="scale(0.5 0.5)" d="M160.992 781.046C162.644 780.929 164.379 780.731 166 781.161C169.131 781.992 171.473 784.247 173.061 787.006C174.524 789.549 174.501 792.133 173.594 794.884C172.353 798.648 169.823 800.628 166.451 802.356C164.902 802.451 162.638 802.819 161.15 802.389C158.044 801.492 155.485 799.478 154.044 796.541C152.747 793.898 152.707 790.631 153.751 787.886C155.1 784.338 157.68 782.561 160.992 781.046Z"/>
	<defs>
		<linearGradient id="gradient_4" gradientUnits="userSpaceOnUse" x1="163.72501" y1="788.03998" x2="157.48" y2="738.12799">
			<stop offset="0" stop-color="#8897A4"/>
			<stop offset="1" stop-color="#B5B6B4"/>
		</linearGradient>
	</defs>
	<path fill="url(#gradient_4)" transform="scale(0.5 0.5)" d="M149.456 739.334C163.065 735.832 177.099 736.944 189.36 744.184C195.66 747.904 202.063 753.321 205.738 759.711C209.874 765.005 213.424 776.382 213.488 782.978L201.644 783.523C200.081 782.258 199.764 778.972 199.03 777.041C197.806 773.82 196.403 770.595 194.36 767.806C192.629 767.604 187.446 761.201 185.476 759.75C182.571 757.612 178.99 755.733 175.504 754.837C170.469 753.543 164.694 753.221 159.537 753.642C157.015 753.848 154.51 754.202 152.041 754.759C149.51 755.329 146.313 757.054 143.862 756.244C135.451 759.609 128.897 770.549 125.44 778.5C124.803 779.966 124.381 782.065 123.101 782.984L113.057 782.62L112.401 782.358C113.346 775.717 114.829 770.232 117.375 764.032C124.643 751.794 135.733 743.269 149.456 739.334Z"/>
	<path fill="#011D37" transform="scale(0.5 0.5)" d="M143.862 756.244C152.018 751.064 163.699 750.273 172.958 752.278C181.868 754.207 188.777 759.074 193.746 766.686L194.36 767.806C192.629 767.604 187.446 761.201 185.476 759.75C182.571 757.612 178.99 755.733 175.504 754.837C170.469 753.543 164.694 753.221 159.537 753.642C157.015 753.848 154.51 754.202 152.041 754.759C149.51 755.329 146.313 757.054 143.862 756.244Z"/>
	<path fill="#C7F9CC" transform="scale(0.5 0.5)" d="M149.456 739.334C163.065 735.832 177.099 736.944 189.36 744.184C195.66 747.904 202.063 753.321 205.738 759.711C203.851 759.709 200.231 756.282 198.525 755.058C195.124 752.619 191.309 749.974 187.53 748.185C177.761 743.561 167.925 741.592 157.25 740.311C157.688 739.766 157.389 740.074 158.25 739.5L159.125 739.875L160 739.5C161.747 740.455 164.562 740.037 166.533 740.006C165.609 739.499 164.489 739.431 163.499 739.026C162.072 738.443 160.747 737.771 159.167 738.211C157.698 738.621 158.973 738.412 157.342 738.614C154.819 738.926 152.398 739.954 149.881 739.429L149.456 739.334Z"/>
	<path fill="#80ED99" transform="scale(0.5 0.5)" d="M10.4596 702.18C66.1737 701.688 121.871 702.718 177.578 702.593C359.119 702.187 540.654 702.024 722.198 702.102C786.943 702.129 851.692 702.686 916.435 702.393C938.961 702.291 961.466 701.97 983.999 702.07C994.011 702.114 1005.43 701.311 1015.26 702.937L1024 702.975L1024 704.98L1024 746.333C1022.3 753.957 1021.34 762.047 1018.91 769.46L982.596 770.897C976.916 757.442 968.572 740.265 955.569 732.57L955.454 732.292C948.821 727.587 940.935 723.377 933.035 721.338L929.431 720.587C922.451 719.629 915.154 719.962 908.105 719.847C890.802 719.565 873.489 719.95 856.183 719.938C842.447 719.929 828.733 719.417 814.996 719.636C809.907 719.718 804.243 719.492 799.23 720.403C790.626 721.966 779.838 726.428 772.893 731.755C763.296 738.092 756.277 747.065 749.041 755.852C744.919 760.857 740.589 765.778 736.658 770.93C733.868 774.599 731.178 779.179 727.625 782.03C726.046 783.296 722.32 782.686 720.25 782.476C712.084 781.649 701.678 780.999 693.618 782.32C691.81 782.815 688.723 782.392 686.799 782.378C680.365 782.329 673.934 782.155 667.5 782.103C645.48 781.926 623.455 781.997 601.434 781.995C539.997 781.99 478.561 782.027 417.125 782.068C398.496 782.08 379.868 782.33 361.239 782.419C351.45 782.466 341.542 782.828 331.767 782.307C323.774 781.431 315.257 782.088 307.21 782.187C305.137 782.213 301.658 782.699 299.752 782.165C298.747 781.883 297.633 780.953 296.772 780.362L287.125 769.238L258.649 736.255C254.196 731.98 248.868 728.989 243.479 726.059C239.431 723.859 235.364 721.515 230.815 720.54C225.686 719.441 219.763 719.85 214.512 719.814C203.641 719.739 192.765 719.856 181.893 719.903C157.609 720.008 133.313 719.323 109.035 719.879C105.67 719.956 102.134 719.841 98.8176 720.415C93.5976 721.319 87.9755 723.498 83.0893 725.527C80.5241 726.592 76.8449 728.086 74.9316 730.09C60.0845 737.888 49.5503 751.986 44.4829 767.75L43.7636 770.368L42.1403 780.456C34.5852 780.483 24.5208 782.542 17.3507 779.756L16.75 779.51C15.8851 779.167 15.0477 778.841 14.25 778.351C6.17543 773.392 4.92495 762.798 3.20745 754.293C2.19773 749.293 1.10022 744.309 0 739.328L0 702.205L1.47812 702.639L10.4596 702.18Z"/>
	<path fill="#FCFFF5" transform="scale(0.5 0.5)" d="M1015.26 702.937L1024 702.975L1024 704.98L991.629 704.778C992.231 704.152 991.858 704.318 992.765 704.321C999.29 704.344 1006.53 704.982 1012.96 704.125L1011.25 703.875L1015.26 702.937Z"/>
	<path fill="#18E167" transform="scale(0.5 0.5)" d="M0 702.205L1.47812 702.639C3.66909 703.635 6.23034 703.576 8.60515 703.747C8.90208 713.121 8.8562 722.707 9.83999 732.031C11.1298 744.254 13.8274 756.475 16.1927 768.531C18.1901 769.395 20.8214 769.583 22.9803 769.858C29.8725 770.735 36.8314 770.446 43.7636 770.368L42.1403 780.456C34.5852 780.483 24.5208 782.542 17.3507 779.756L16.75 779.51C15.8851 779.167 15.0477 778.841 14.25 778.351C6.17543 773.392 4.92495 762.798 3.20745 754.293C2.19773 749.293 1.10022 744.309 0 739.328L0 702.205Z"/>
	<path fill="white" transform="scale(0.5 0.5)" d="M10.4596 702.18C66.1737 701.688 121.871 702.718 177.578 702.593C359.119 702.187 540.654 702.024 722.198 702.102C786.943 702.129 851.692 702.686 916.435 702.393C938.961 702.291 961.466 701.97 983.999 702.07C994.011 702.114 1005.43 701.311 1015.26 702.937L1011.25 703.875L1012.96 704.125C1006.53 704.982 999.29 704.344 992.765 704.321C991.858 704.318 992.231 704.152 991.629 704.778L8.60515 703.747C6.23034 703.576 3.66909 703.635 1.47812 702.639L10.4596 702.18Z"/>
	<path fill="#18E167" transform="scale(0.5 0.5)" d="M287.125 769.238L736.658 770.93C733.868 774.599 731.178 779.179 727.625 782.03C726.046 783.296 722.32 782.686 720.25 782.476C712.084 781.649 701.678 780.999 693.618 782.32C691.81 782.815 688.723 782.392 686.799 782.378C680.365 782.329 673.934 782.155 667.5 782.103C645.48 781.926 623.455 781.997 601.434 781.995C539.997 781.99 478.561 782.027 417.125 782.068C398.496 782.08 379.868 782.33 361.239 782.419C351.45 782.466 341.542 782.828 331.767 782.307C323.774 781.431 315.257 782.088 307.21 782.187C305.137 782.213 301.658 782.699 299.752 782.165C298.747 781.883 297.633 780.953 296.772 780.362L287.125 769.238Z"/>
	<path fill="#22577A" transform="scale(0.5 0.5)" d="M130.627 607.071L155.639 607.321L155.487 643.774C158.966 643.196 162.943 643.464 166.484 643.414C173.51 643.314 180.536 643.244 187.563 643.203C228.703 642.963 269.858 643.062 311 643.171C330.231 643.222 349.824 644.582 369.017 643.334C372.651 643.098 376.18 643.251 378.935 640.742C383.793 641.479 389.254 641.343 394.194 641.427C405.312 641.617 416.397 641.28 427.5 640.776L424.437 640.028L429.736 639.994L430.6 639.027L431.002 640.379L455.209 640.716L455.288 640.126L457.457 640.248L457.591 640.822C487.683 641.63 517.847 641.09 547.946 640.961C553.796 640.936 559.645 640.948 565.495 640.986C567.429 640.999 570.309 641.471 571.981 640.569C573.91 640.314 577.815 639.943 579.606 640.66C582.403 642.186 597.308 641.756 600.908 641.189L600.117 640.698C602.695 640.422 604.911 640.547 607.455 640.881L607.773 641.355C615.815 641.499 623.738 641.209 631.766 641.057C634.964 640.996 638.831 640.513 641.97 640.919C643.294 640.967 645.597 640.784 646.817 641.204C647.639 641.488 648.004 641.925 648.923 642.025C653.587 642.534 658.386 642.706 663.073 642.85C694.041 643.803 725.234 643.459 756.226 643.459C798.778 643.459 841.328 643.561 883.88 643.57C911.929 643.575 939.977 643.505 968.026 643.524C986.638 643.538 1005.41 643.991 1024 643.078L1024 702.975L1015.26 702.937C1005.43 701.311 994.011 702.114 983.999 702.07C961.466 701.97 938.961 702.291 916.435 702.393C851.692 702.686 786.943 702.129 722.198 702.102C540.654 702.024 359.119 702.187 177.578 702.593C121.871 702.718 66.1737 701.688 10.4596 702.18L1.47812 702.639L0 702.205L0 644.605L0 608.606L10.2732 608.348L130.627 607.071Z"/>
	<path fill="#80ED99" transform="scale(0.5 0.5)" d="M130.627 607.071L155.639 607.321L155.487 643.774L8.56584 644.56L4.82514 644.71L0 644.605L0 608.606L10.2732 608.348L130.627 607.071Z"/>
	<path fill="#18E167" transform="scale(0.5 0.5)" d="M0 608.606L10.2732 608.348C9.81786 608.887 8.43781 610.165 8.245 610.75C7.83618 611.99 8.0522 614.369 7.93893 615.75C7.17787 625.031 7.57281 634.045 7.75 643.315L8.56584 644.56L4.82514 644.71L0 644.605L0 608.606Z"/>
</svg>
