<?xml version="1.0" encoding="utf-8" ?>
<svg xmlns="http://www.w3.org/2000/svg" xmlns:xlink="http://www.w3.org/1999/xlink" width="254" height="254">
	<path fill="#EE1D1D" transform="scale(0.248861 0.248861)" d="M498.479 119.286C549.498 115.498 598.794 132.385 638.25 164.629C677.894 197.027 709.002 246.755 714.261 298.344C716.964 324.861 715.881 352.382 708.948 378.229C701.638 405.482 687.101 431.764 669.275 453.503C646.346 481.467 614.233 504.591 579.887 516.336C562.241 522.37 543.771 525.628 525.265 527.468C503.558 528.27 481.303 526.648 460.221 521.194C429.17 513.16 400.16 496.626 376.034 475.694C351.858 454.719 332.904 427.624 321.902 397.494C314.985 378.549 311.046 357.071 309.641 336.982C307.705 309.313 311.316 280.597 320.882 254.501C329.327 231.461 343.225 209.13 359.344 190.722C394.191 150.929 445.27 122.735 498.479 119.286Z"/>
	<path fill="#EE1D1D" transform="scale(0.248861 0.248861)" d="M618.548 536.022L620.274 535.917C622.258 535.956 624.412 537.048 626.25 537.78C630.394 539.429 634.47 541.257 638.567 543.018C649.27 547.619 659.582 553.048 669.845 558.548C705.312 577.557 737.993 600.955 766.614 629.311C783.645 646.185 799.392 664.471 813.429 683.917C820.587 693.834 827.003 704.482 833.539 714.822C838.663 722.928 844.358 730.596 847.91 739.564C853.042 752.52 855.016 766.695 855.058 780.561C855.155 812.849 843.488 845.247 820.391 868.212C804.788 883.726 784.865 896.324 763.25 901.165C758.601 902.206 753.705 903.354 748.967 903.812C741.781 904.508 734.204 904.061 726.975 904.082C716.808 904.111 706.641 904.131 696.474 904.148C668.267 904.194 640.067 904.31 611.861 904.139C535.799 903.679 459.689 903.999 383.625 904.131C358.952 904.013 334.275 904.11 309.601 904.1C302.009 904.096 294.416 904.091 286.824 904.067C282.601 904.054 278.242 904.267 274.042 903.867C264.493 902.958 254.911 900.596 246 897.057C216.776 885.45 190.917 861.182 178.58 832.108C173.854 820.972 171.507 808.996 170.338 797C168.553 778.679 168.95 759.028 175.945 741.74C181.22 728.705 189.983 716.763 197.63 705.016C205.897 692.316 214.498 679.652 224.027 667.861C249.685 636.114 280.076 608.269 313.388 584.75C334.592 569.78 357.171 556.16 381.146 546.072C388.373 543.032 395.724 540.318 403.136 537.768C404.16 537.415 406.943 536.073 407.909 536.129C408.772 536.18 411.352 537.887 412.232 538.333C416.893 540.695 421.603 543.023 426.453 544.974C439.904 550.387 454.045 553.912 468.25 556.668C497.898 562.421 529.057 562.357 558.609 556.034C579.265 551.614 599.154 544.285 618.548 536.022Z"/>
	<!-- white outline -->
    <path fill="none" stroke="white" stroke-width="20" transform="scale(0.248861 0.248861)" d="M498.479 119.286C549.498 115.498 598.794 132.385 638.25 164.629C677.894 197.027 709.002 246.755 714.261 298.344C716.964 324.861 715.881 352.382 708.948 378.229C701.638 405.482 687.101 431.764 669.275 453.503C646.346 481.467 614.233 504.591 579.887 516.336C562.241 522.37 543.771 525.628 525.265 527.468C503.558 528.27 481.303 526.648 460.221 521.194C429.17 513.16 400.16 496.626 376.034 475.694C351.858 454.719 332.904 427.624 321.902 397.494C314.985 378.549 311.046 357.071 309.641 336.982C307.705 309.313 311.316 280.597 320.882 254.501C329.327 231.461 343.225 209.13 359.344 190.722C394.191 150.929 445.27 122.735 498.479 119.286Z"/>
    <path fill="none" stroke="white" stroke-width="20" transform="scale(0.248861 0.248861)" d="M618.548 536.022L620.274 535.917C622.258 535.956 624.412 537.048 626.25 537.78C630.394 539.429 634.47 541.257 638.567 543.018C649.27 547.619 659.582 553.048 669.845 558.548C705.312 577.557 737.993 600.955 766.614 629.311C783.645 646.185 799.392 664.471 813.429 683.917C820.587 693.834 827.003 704.482 833.539 714.822C838.663 722.928 844.358 730.596 847.91 739.564C853.042 752.52 855.016 766.695 855.058 780.561C855.155 812.849 843.488 845.247 820.391 868.212C804.788 883.726 784.865 896.324 763.25 901.165C758.601 902.206 753.705 903.354 748.967 903.812C741.781 904.508 734.204 904.061 726.975 904.082C716.808 904.111 706.641 904.131 696.474 904.148C668.267 904.194 640.067 904.31 611.861 904.139C535.799 903.679 459.689 903.999 383.625 904.131C358.952 904.013 334.275 904.11 309.601 904.1C302.009 904.096 294.416 904.091 286.824 904.067C282.601 904.054 278.242 904.267 274.042 903.867C264.493 902.958 254.911 900.596 246 897.057C216.776 885.45 190.917 861.182 178.58 832.108C173.854 820.972 171.507 808.996 170.338 797C168.553 778.679 168.95 759.028 175.945 741.74C181.22 728.705 189.983 716.763 197.63 705.016C205.897 692.316 214.498 679.652 224.027 667.861C249.685 636.114 280.076 608.269 313.388 584.75C334.592 569.78 357.171 556.16 381.146 546.072C388.373 543.032 395.724 540.318 403.136 537.768C404.16 537.415 406.943 536.073 407.909 536.129C408.772 536.18 411.352 537.887 412.232 538.333C416.893 540.695 421.603 543.023 426.453 544.974C439.904 550.387 454.045 553.912 468.25 556.668C497.898 562.421 529.057 562.357 558.609 556.034C579.265 551.614 599.154 544.285 618.548 536.022Z"/>
</svg>
